<svg xmlns="http://www.w3.org/2000/svg" width="101.15" height="88.007" viewBox="0 0 101.15 88.007"><defs><style>.a{fill:#bff1a7;}.b{fill:#91d571;}.c{fill:#f1ffea;}.d{fill:#eaf6ff;}.e{fill:#365e7d;}.f{fill:#f25a74;}.g{fill:#fff292;}.h{fill:#f9e77d;}.i{fill:#f9d264;}.j{fill:#efc356;}</style></defs><path class="a" d="M1.387,102.769H93.4a1.383,1.383,0,0,0,1.383-1.383V34.645A1.383,1.383,0,0,0,93.4,33.262H1.387A1.383,1.383,0,0,0,0,34.645v66.741a1.383,1.383,0,0,0,1.383,1.383Z" transform="translate(-0.003 -33.262)"/><path class="b" d="M6.316,33.264V102.77H1.383A1.383,1.383,0,0,1,0,101.387V34.647a1.383,1.383,0,0,1,1.383-1.383Z" transform="translate(0 -33.264)"/><path d="M441.813,345.384a1.526,1.526,0,1,1-1.526,1.526A1.526,1.526,0,0,1,441.813,345.384Z" transform="translate(-353.305 -283.722)"/><path class="c" d="M38.307,122.116h69.507V115.8h6.319V71.566a6.319,6.319,0,0,1-6.319-6.319H38.307a6.319,6.319,0,0,1-6.319,6.319h0V115.8h0A6.319,6.319,0,0,1,38.307,122.116Z" transform="translate(-25.668 -58.928)"/><g transform="translate(4.794 4.793)"><path class="d" d="M441.589,57.524a1.526,1.526,0,1,1-1.526,1.526,1.526,1.526,0,0,1,1.526-1.526Z" transform="translate(-357.919 -57.524)"/><path class="d" d="M25.792,345.384a1.526,1.526,0,1,1-1.526,1.526A1.526,1.526,0,0,1,25.792,345.384Z" transform="translate(-24.266 -288.515)"/><path class="d" d="M25.792,57.524a1.526,1.526,0,1,1-1.526,1.526,1.526,1.526,0,0,1,1.526-1.526Z" transform="translate(-24.266 -57.524)"/></g><path class="b" d="M161.049,135.389H113.22a1.383,1.383,0,0,1-1.383-1.383v-3.553a1.383,1.383,0,0,1,1.383-1.383h47.829a1.383,1.383,0,0,1,1.383,1.383v3.553A1.383,1.383,0,0,1,161.049,135.389Z" transform="translate(-89.743 -110.142)"/><g transform="translate(23.772 30.039)"><path class="e" d="M166.044,188.367H121.857a1.526,1.526,0,0,1,0-3.052h44.187a1.526,1.526,0,0,1,0,3.052Z" transform="translate(-120.331 -185.315)"/><g transform="translate(3.159 6.318)"><path class="e" d="M175.717,220.346H137.849a1.526,1.526,0,0,1,0-3.052h37.868a1.526,1.526,0,0,1,0,3.052Z" transform="translate(-136.323 -217.295)"/></g><g transform="translate(9.478 18.953)"><path class="e" d="M195.064,284.3H169.834a1.526,1.526,0,0,1,0-3.052h25.231a1.526,1.526,0,1,1,0,3.052Z" transform="translate(-168.308 -281.253)"/></g></g><path class="f" d="M410.31,408.888l-3.958-3.958-3.958,3.958a1.383,1.383,0,0,1-2.361-.978V392.2h12.638v15.71A1.383,1.383,0,0,1,410.31,408.888Z" transform="translate(-321.003 -321.289)"/><path class="g" d="M383.641,280.514a15.811,15.811,0,0,1-10.716,14.965l-.018.006a15.8,15.8,0,1,1,0-29.942l.018.006A15.811,15.811,0,0,1,383.641,280.514Z" transform="translate(-282.491 -218.988)"/><path class="h" d="M372.926,295.479l-.018.006a15.8,15.8,0,1,1,0-29.942l.018.006a15.835,15.835,0,0,0-7.855,5.9v0a15.808,15.808,0,0,0,7.855,24.033Z" transform="translate(-282.491 -218.988)"/><ellipse class="i" cx="9.434" cy="9.434" rx="9.434" ry="9.434" transform="translate(75.915 52.044)"/><path class="j" d="M390.846,316.8h0a15.8,15.8,0,0,1,.085-18.013h0a9.437,9.437,0,0,0-.085,18.015Z" transform="translate(-308.351 -246.331)"/></svg>