<svg xmlns="http://www.w3.org/2000/svg" width="101.151" height="88.009" viewBox="0 0 101.151 88.009"><defs><style>.a{fill:#f8e999;}.b{fill:#efcd1b;}.c{fill:#fef8db;}.d{fill:#eaf6ff;}.e{fill:#9bd8f9;}.f{fill:#365e7d;}.g{fill:#f25a74;}.h{fill:#fff292;}.i{fill:#f9e77d;}.j{fill:#f9d264;}.k{fill:#efc356;}</style></defs><g transform="translate(0)"><path class="a" d="M1.387,102.77H93.4a1.383,1.383,0,0,0,1.383-1.383V34.645A1.383,1.383,0,0,0,93.4,33.262H1.387A1.383,1.383,0,0,0,0,34.645v66.742a1.383,1.383,0,0,0,1.383,1.383Z" transform="translate(-0.003 -33.262)"/><path class="b" d="M6.316,33.264v69.507H1.383A1.383,1.383,0,0,1,0,101.388V34.647a1.383,1.383,0,0,1,1.383-1.383Z" transform="translate(0 -33.264)"/><path d="M441.813,345.384a1.526,1.526,0,1,1-1.526,1.526A1.526,1.526,0,0,1,441.813,345.384Z" transform="translate(-353.303 -283.721)"/><path class="c" d="M38.307,122.117h69.507V115.8h6.319V71.566a6.319,6.319,0,0,1-6.319-6.319H38.307a6.319,6.319,0,0,1-6.319,6.319h0V115.8h0A6.319,6.319,0,0,1,38.307,122.117Z" transform="translate(-25.668 -58.928)"/><g transform="translate(4.794 4.793)"><path class="d" d="M441.589,57.524a1.526,1.526,0,1,1-1.526,1.526,1.526,1.526,0,0,1,1.526-1.526Z" transform="translate(-357.918 -57.524)"/><path class="d" d="M25.792,345.384a1.526,1.526,0,1,1-1.526,1.526A1.526,1.526,0,0,1,25.792,345.384Z" transform="translate(-24.266 -288.514)"/><path class="d" d="M25.792,57.524a1.526,1.526,0,1,1-1.526,1.526,1.526,1.526,0,0,1,1.526-1.526Z" transform="translate(-24.266 -57.524)"/></g><path class="e" d="M161.049,135.389H113.22a1.383,1.383,0,0,1-1.383-1.383v-3.553a1.383,1.383,0,0,1,1.383-1.383h47.83a1.383,1.383,0,0,1,1.383,1.383v3.553A1.383,1.383,0,0,1,161.049,135.389Z" transform="translate(-89.742 -110.142)"/><g transform="translate(23.773 30.04)"><path class="f" d="M166.045,188.367H121.857a1.526,1.526,0,0,1,0-3.052h44.188a1.526,1.526,0,0,1,0,3.052Z" transform="translate(-120.331 -185.315)"/><g transform="translate(3.159 6.318)"><path class="f" d="M175.718,220.347H137.849a1.526,1.526,0,0,1,0-3.052h37.869a1.526,1.526,0,0,1,0,3.052Z" transform="translate(-136.323 -217.295)"/></g><g transform="translate(9.478 18.954)"><path class="f" d="M195.065,284.3H169.834a1.526,1.526,0,1,1,0-3.051h25.231a1.526,1.526,0,1,1,0,3.051Z" transform="translate(-168.308 -281.253)"/></g></g><path class="g" d="M410.31,408.889l-3.958-3.958-3.958,3.958a1.383,1.383,0,0,1-2.361-.978V392.2h12.638v15.711A1.383,1.383,0,0,1,410.31,408.889Z" transform="translate(-321.002 -321.288)"/><path class="h" d="M383.642,280.514a15.811,15.811,0,0,1-10.716,14.965l-.018.006a15.8,15.8,0,1,1,0-29.942l.018.006A15.811,15.811,0,0,1,383.642,280.514Z" transform="translate(-282.49 -218.987)"/><path class="i" d="M372.926,295.479l-.018.006a15.8,15.8,0,1,1,0-29.942l.018.006a15.835,15.835,0,0,0-7.855,5.9v0a15.808,15.808,0,0,0,7.855,24.033Z" transform="translate(-282.49 -218.987)"/><ellipse class="j" cx="9.434" cy="9.434" rx="9.434" ry="9.434" transform="translate(75.916 52.044)"/><path class="k" d="M390.846,316.8h0a15.8,15.8,0,0,1,.085-18.014h0a9.437,9.437,0,0,0-.085,18.015Z" transform="translate(-308.35 -246.33)"/></g></svg>