<svg xmlns="http://www.w3.org/2000/svg" width="101.728" height="88.511" viewBox="0 0 101.728 88.511"><defs><style>.a{fill:#9bd8f9;}.b{fill:#73c3f9;}.c{fill:#eaf6ff;}.d{fill:#365e7d;}.e{fill:#f25a74;}.f{fill:#fff292;}.g{fill:#f9e77d;}.h{fill:#f9d264;}.i{fill:#efc356;}</style></defs><g transform="translate(0 0)"><path class="a" d="M1.395,103.166H93.937a1.391,1.391,0,0,0,1.391-1.391V34.653a1.391,1.391,0,0,0-1.391-1.391H1.395A1.391,1.391,0,0,0,0,34.653v67.123a1.391,1.391,0,0,0,1.391,1.391Z" transform="translate(-0.003 -33.262)"/><path class="b" d="M6.352,33.264v69.9H1.391A1.391,1.391,0,0,1,0,101.777V34.655a1.391,1.391,0,0,1,1.391-1.391Z" transform="translate(0 -33.264)"/><path d="M441.822,345.384a1.534,1.534,0,1,1-1.534,1.534A1.535,1.535,0,0,1,441.822,345.384Z" transform="translate(-352.807 -283.369)"/><path class="c" d="M38.343,122.441h69.9v-6.355H114.6V71.6a6.355,6.355,0,0,1-6.355-6.355h-69.9A6.355,6.355,0,0,1,31.988,71.6h0v44.484h0A6.355,6.355,0,0,1,38.343,122.441Z" transform="translate(-25.633 -58.892)"/><g transform="translate(4.821 4.82)"><path class="c" d="M441.6,57.524a1.534,1.534,0,1,1-1.534,1.534,1.535,1.535,0,0,1,1.534-1.534Z" transform="translate(-357.449 -57.524)"/><path class="c" d="M25.8,345.384a1.534,1.534,0,1,1-1.534,1.534A1.535,1.535,0,0,1,25.8,345.384Z" transform="translate(-24.266 -288.19)"/><path class="c" d="M25.8,57.524a1.534,1.534,0,1,1-1.534,1.534A1.535,1.535,0,0,1,25.8,57.524Z" transform="translate(-24.266 -57.524)"/></g><path class="a" d="M161.33,135.425h-48.1a1.391,1.391,0,0,1-1.391-1.391v-3.573a1.391,1.391,0,0,1,1.391-1.391h48.1a1.391,1.391,0,0,1,1.391,1.391v3.573A1.391,1.391,0,0,1,161.33,135.425Z" transform="translate(-89.617 -110.034)"/><g transform="translate(23.908 30.211)"><path class="d" d="M166.305,188.384h-44.44a1.534,1.534,0,0,1,0-3.069h44.44a1.534,1.534,0,0,1,0,3.069Z" transform="translate(-120.331 -185.315)"/><g transform="translate(3.177 6.354)"><path class="d" d="M175.942,220.364H137.857a1.535,1.535,0,0,1,0-3.069h38.085a1.535,1.535,0,0,1,0,3.069Z" transform="translate(-136.323 -217.295)"/></g><g transform="translate(9.532 19.062)"><path class="d" d="M195.217,284.322H169.842a1.534,1.534,0,0,1,0-3.069h25.375a1.534,1.534,0,0,1,0,3.069Z" transform="translate(-168.308 -281.253)"/></g></g><path class="e" d="M410.369,408.984,406.388,405l-3.981,3.981a1.391,1.391,0,0,1-2.374-.983V392.2h12.71V408A1.391,1.391,0,0,1,410.369,408.984Z" transform="translate(-320.551 -320.883)"/><path class="f" d="M383.822,280.6a15.9,15.9,0,0,1-10.777,15.051l-.018.006a15.891,15.891,0,1,1,0-30.113l.018.006A15.9,15.9,0,0,1,383.822,280.6Z" transform="translate(-282.094 -218.727)"/><path class="g" d="M373.045,295.655l-.018.006a15.891,15.891,0,1,1,0-30.113l.018.006a15.926,15.926,0,0,0-7.9,5.929v0a15.9,15.9,0,0,0,7.9,24.17Z" transform="translate(-282.094 -218.727)"/><ellipse class="h" cx="9.488" cy="9.488" rx="9.488" ry="9.488" transform="translate(76.349 52.341)"/><path class="i" d="M390.884,316.906h0a15.893,15.893,0,0,1,.085-18.116h0a9.491,9.491,0,0,0-.085,18.118Z" transform="translate(-307.917 -246.031)"/></g></svg>