<svg xmlns="http://www.w3.org/2000/svg" width="46" height="46" viewBox="0 0 46 46"><defs><style>.a{fill:#343a6e;}.b{fill:#484b7f;}.c{fill:#f9df73;}.d{fill:#f2ae5a;}</style></defs><path class="a" d="M46,23A23.011,23.011,0,0,1,14.035,44.186a22.7,22.7,0,0,1-2.728-1.377A23,23,0,1,1,46,23Z"/><path class="b" d="M42.233,19.233A19.242,19.242,0,0,1,15.5,36.95,18.993,18.993,0,0,1,13.222,35.8,19.234,19.234,0,1,1,42.233,19.233Z"/><rect class="c" width="4.694" height="9.106" transform="translate(20.184 35.699)"/><rect class="d" width="2.347" height="9.106" transform="translate(20.184 35.699)"/><path class="c" d="M23,31.756h0a10.839,10.839,0,0,1-10.805-9.991L10.748,3.326A1.32,1.32,0,0,1,12.064,1.9H33.935a1.32,1.32,0,0,1,1.316,1.423L33.8,21.765A10.838,10.838,0,0,1,23,31.756Z"/><circle class="c" cx="4.271" cy="4.271" r="4.271" transform="translate(18.259 29.926)"/><path class="d" d="M13.686,23.985c-4.315,0-7.685-1.4-10.017-4.175C1.53,17.269.329,13.683.1,9.153a29.813,29.813,0,0,1,.288-6l.135-.778H7.59L9.373,5.548H12.31V7.426H8.274L6.491,4.25H2.134c-.277,2.42-.773,9.909,2.975,14.356,1.958,2.324,4.844,3.5,8.577,3.5v1.878Z"/><path class="d" d="M21.066,30.184a4.062,4.062,0,0,0,.527.257,3.5,3.5,0,0,0-.736,1.1,10.6,10.6,0,0,1-1.349-.363,10.84,10.84,0,0,1-7.313-9.415L10.749,3.326A1.32,1.32,0,0,1,12.064,1.9h3.989l.875,19.174C17.124,25.367,18.806,28.884,21.066,30.184Z"/><path class="d" d="M22.662,38.466l-.131,0a4.272,4.272,0,0,1-1.465-8.285,4.062,4.062,0,0,0,.527.257,3.5,3.5,0,0,0-.736,1.1,6.6,6.6,0,0,0-.52,2.654C20.336,36.512,21.371,38.4,22.662,38.466Z"/><path class="d" d="M22.662,38.466c.115,0,.227-.011.338-.023a1.374,1.374,0,0,1-.264.025Z"/><path class="d" d="M34.693,42.809a23.021,23.021,0,0,1-23.387,0,3.5,3.5,0,0,1,3.222-2.135H31.472A3.5,3.5,0,0,1,34.693,42.809Z"/><path class="c" d="M34.693,42.809a23.04,23.04,0,0,1-20.659,1.377v-.014a3.5,3.5,0,0,1,3.5-3.5H31.471A3.5,3.5,0,0,1,34.693,42.809Z"/><path class="c" d="M32.314,23.985V22.108c3.733,0,6.618-1.178,8.577-3.5C44.638,14.158,44.143,6.67,43.865,4.25H39.509L37.725,7.426H33.689V5.548h2.937L38.41,2.372h7.066l.135.778c.075.432,1.775,10.653-3.28,16.66C40,22.581,36.629,23.985,32.314,23.985Z"/><path class="d" d="M23,9.095,25.273,13.7l5.083.739-3.678,3.585.868,5.062L23,20.7l-4.546,2.39.868-5.062-3.678-3.585,5.083-.739Z"/></svg>