<svg xmlns="http://www.w3.org/2000/svg" width="46" height="46" viewBox="0 0 46 46"><defs><style>.a{fill:#fc5426;}.b{fill:#fded32;}.c{fill:#fdf385;}.d{fill:#e8ce00;}.e{fill:#fdf7bd;}.f{fill:#88b9d3;}.g{fill:#b3d1e1;}.h{fill:#ebae56;}.i{fill:#025f80;}.j{fill:#017296;}.k{fill:#0ab59e;}.l{fill:#01988c;}.m{fill:#024c67;}</style></defs><path class="a" d="M46,23A23,23,0,1,1,23,0,23,23,0,0,1,46,23Zm0,0"/><path class="b" d="M29.913,29.3a11.1,11.1,0,0,0-3.679,8.306v.215H16.172V37.57a11.256,11.256,0,0,0-3.76-8.34,13.117,13.117,0,1,1,17.5.073Zm0,0"/><path class="c" d="M26.234,37.609v.215H19.586V37.57a11.256,11.256,0,0,0-3.76-8.34A13.118,13.118,0,0,1,22.909,6.489a13.117,13.117,0,0,1,7,22.814,11.1,11.1,0,0,0-3.679,8.306Zm0,0"/><path class="d" d="M24.348,18.283H18.059a3.373,3.373,0,0,0-3.369,3.369,2.473,2.473,0,0,0,2.471,2.471,1.124,1.124,0,0,1,1.123,1.123v9.883A2.473,2.473,0,0,0,20.754,37.6h.9a2.473,2.473,0,0,0,2.471-2.471V25.246a1.124,1.124,0,0,1,1.123-1.123,2.473,2.473,0,0,0,2.471-2.471A3.373,3.373,0,0,0,24.348,18.283Zm.9,4.492a2.473,2.473,0,0,0-2.471,2.471v9.883a1.124,1.124,0,0,1-1.123,1.123h-.9a1.124,1.124,0,0,1-1.123-1.123V25.246a2.473,2.473,0,0,0-2.471-2.471,1.124,1.124,0,0,1-1.123-1.123,2.024,2.024,0,0,1,2.021-2.021h6.289a2.024,2.024,0,0,1,2.021,2.021A1.124,1.124,0,0,1,25.246,22.775Zm0,0"/><path class="e" d="M24.228,9.523c.487-.64,3.59.358,5.51,2.516,1.645,1.848,2.411,4.534,1.8,4.971-.756.538-3.6-2.335-4.193-2.935-.358-.361-3.719-3.758-3.114-4.552Zm0,0"/><path class="f" d="M27.941,36.926a1.8,1.8,0,0,1-1.258,1.714v.082a4.492,4.492,0,0,1-4.492,4.492H20.215a4.492,4.492,0,0,1-4.492-4.492V38.64a1.8,1.8,0,0,1,.539-3.511h9.883A1.8,1.8,0,0,1,27.941,36.926Zm0,0"/><path class="g" d="M27.941,36.926a1.8,1.8,0,0,1-1.258,1.714v.082a4.493,4.493,0,0,1-3.549,4.392,4.5,4.5,0,0,1-3.078-2.389.45.45,0,0,1,.4-.655h4.026a.674.674,0,0,0,.673-.695.692.692,0,0,0-.7-.653H18.867a1.8,1.8,0,0,1,0-3.594h7.277a1.8,1.8,0,0,1,1.8,1.8Zm0,0"/><path class="h" d="M28.431,22.652a5.391,5.391,0,0,1-2.755,1.474l-4.092.818a.449.449,0,0,1-.529-.529l.818-4.092a5.389,5.389,0,0,1,1.474-2.754l1.59-1.59,5.082,5.082Zm0,0"/><path class="i" d="M43.414,7.669a2.7,2.7,0,0,1-3.812,0L38.331,6.4a2.7,2.7,0,0,1,3.812-3.812l1.271,1.271A2.7,2.7,0,0,1,43.414,7.669Zm0,0"/><path class="j" d="M43.927,4.575A2.694,2.694,0,0,1,40.32,8.181a2.694,2.694,0,0,1,3.606-3.606Zm0,0"/><path class="k" d="M26.006,22.535a1.8,1.8,0,0,1,0-2.541,1.8,1.8,0,0,1-2.541-2.541L38.331,2.586l5.082,5.082L28.547,22.535a1.8,1.8,0,0,1-2.541,0Zm0,0"/><path class="l" d="M26.006,19.994a1.8,1.8,0,0,1-2.541-2.541L38.331,2.586l2.541,2.541Zm0,0"/><path class="m" d="M23.041,24.653l-1.457.291a.449.449,0,0,1-.529-.529l.291-1.457Zm0,0"/></svg>