<svg xmlns="http://www.w3.org/2000/svg" width="36.083" height="24.971" viewBox="0 0 36.083 24.971"><defs><style>.a{fill:#365e7d;}.b{fill:#294b64;}.c{fill:#477b9e;}.d{fill:#3f6d8e;}.e{fill:#ecf4ff;}.f{fill:#ffd064;}.g{fill:#ebb044;}.h{fill:#ffe07d;}</style></defs><g transform="translate(-0.001 -78.834)"><path class="a" d="M109.005,235.724l.34.7s5.4,4.382,10.019,4.382,10.043-4.382,10.043-4.382l.316-.7h0a49.705,49.705,0,0,1-1.6-5.927l-.988-.555H111.451l-.843.555a49.713,49.713,0,0,1-1.6,5.928Z" transform="translate(-101.322 -139.807)"/><path class="b" d="M113.589,229.48l.362-.239h-2.5l-.843.555a49.713,49.713,0,0,1-1.6,5.928h0l.34.7a24.9,24.9,0,0,0,2.119,1.494C112.219,235.4,112.989,232.493,113.589,229.48Z" transform="translate(-101.322 -139.807)"/><path class="c" d="M35.735,84.658,18.944,78.983a2.816,2.816,0,0,0-1.8,0L.349,84.658a.512.512,0,0,0-.06.945l16.52,8.054a2.816,2.816,0,0,0,2.468,0L35.8,85.6A.512.512,0,0,0,35.735,84.658Z" transform="translate(0 -0.001)"/><path class="d" d="M5.37,85.6a.512.512,0,0,1,.06-.945l15.152-5.121-1.639-.554a2.816,2.816,0,0,0-1.8,0L.349,84.657a.512.512,0,0,0-.06.945l16.52,8.054a2.816,2.816,0,0,0,2.468,0l1.307-.637Z" transform="translate(0)"/><g transform="translate(18.351 83.444)"><path class="e" d="M274.042,159.724a.544.544,0,0,1-.544-.544v-10.07a.569.569,0,0,0-.425-.55l-12.289-3.24a.545.545,0,1,1,.278-1.053l12.288,3.24a1.657,1.657,0,0,1,1.237,1.6v10.07A.545.545,0,0,1,274.042,159.724Z" transform="translate(-260.378 -144.248)"/></g><path class="f" d="M439.641,373.295h-1.906l-.227,3.526a.5.5,0,0,0,.491.54h1.377a.5.5,0,0,0,.491-.54Z" transform="translate(-406.673 -273.709)"/><path class="g" d="M438.748,376.821l.227-3.526h-1.241l-.227,3.526a.5.5,0,0,0,.491.54h1.241A.5.5,0,0,1,438.748,376.821Z" transform="translate(-406.673 -273.709)"/><path class="h" d="M438.343,337.336h-.883a.8.8,0,0,0-.8.8v1.587a.261.261,0,0,0,.261.261h1.959a.261.261,0,0,0,.261-.261v-1.587A.8.8,0,0,0,438.343,337.336Z" transform="translate(-405.887 -240.284)"/><path class="f" d="M438.064,339.721v-1.587a.8.8,0,0,1,.539-.755.791.791,0,0,0-.261-.045h-.883a.8.8,0,0,0-.8.8v1.587a.261.261,0,0,0,.261.261h1.4A.261.261,0,0,1,438.064,339.721Z" transform="translate(-405.886 -240.283)"/><path class="d" d="M232.325,130.435a1.8,1.8,0,0,0-1.916,1.8v.009a.85.85,0,0,0,.856.835h1.894a.852.852,0,0,0,.854-.933A1.813,1.813,0,0,0,232.325,130.435Z" transform="translate(-214.171 -47.961)"/><path class="a" d="M232.044,132.244v-.009a1.8,1.8,0,0,1,.983-1.606,1.771,1.771,0,0,0-.7-.194,1.8,1.8,0,0,0-1.916,1.8v.009a.85.85,0,0,0,.856.835H232.9A.85.85,0,0,1,232.044,132.244Z" transform="translate(-214.171 -47.961)"/><path class="h" d="M121.978,321.231a26.759,26.759,0,0,1-8.294,4.368,6.769,6.769,0,0,1-4.13,0,26.759,26.759,0,0,1-8.294-4.368c-.182.544-.349,1.016-.489,1.4a1.614,1.614,0,0,0,.515,1.823,27.018,27.018,0,0,0,8.268,4.345,6.77,6.77,0,0,0,4.13,0,27.018,27.018,0,0,0,8.268-4.345,1.614,1.614,0,0,0,.515-1.823C122.327,322.247,122.16,321.775,121.978,321.231Z" transform="translate(-93.577 -225.314)"/><path class="f" d="M103.841,323.014a21.061,21.061,0,0,1-2.582-1.784c-.182.544-.349,1.016-.489,1.4a1.614,1.614,0,0,0,.515,1.823c.573.451,1.153.862,1.729,1.239C103.283,324.858,103.562,323.961,103.841,323.014Z" transform="translate(-93.576 -225.313)"/></g></svg>