<svg xmlns="http://www.w3.org/2000/svg" xmlns:xlink="http://www.w3.org/1999/xlink" width="101.157" height="129.175" viewBox="0 0 101.157 129.175"><defs><style>.a{fill:#669696;}.b{fill:#14273b;}.c{fill:#9fcbcc;}.d{fill:#fff6de;}.e{fill:#f1e3b4;}.f{fill:#82b4b5;}.g{fill:#c9b9ac;}.g,.n{mix-blend-mode:multiply;isolation:isolate;}.h{fill:#425970;}.i{fill:#263e52;}.j{fill:#ffbe97;}.k{fill:#2a4556;}.l{fill:#e67640;}.m{fill:#a66513;}.n{fill:#e0cebf;}.o{fill:url(#a);}.p{fill:url(#b);}.q{fill:#fcd66a;}.r{fill:#fff7e6;}.s{fill:#667e96;}.t{fill:url(#c);}.u{fill:#b03c37;}.v{fill:#7d211d;}.w{fill:#6c9696;}</style><linearGradient id="a" x1="12.66" y1="-0.165" x2="11.745" y2="1.258" gradientUnits="objectBoundingBox"><stop offset="0" stop-color="#efb523"/><stop offset="0.248" stop-color="#ebb122"/><stop offset="0.463" stop-color="#e2a620"/><stop offset="0.665" stop-color="#d1951c"/><stop offset="0.858" stop-color="#bb7c17"/><stop offset="1" stop-color="#a66513"/></linearGradient><linearGradient id="b" x1="33.51" y1="-0.281" x2="32.818" y2="0.812" gradientUnits="objectBoundingBox"><stop offset="0" stop-color="#efb523"/><stop offset="0.321" stop-color="#da9e1e"/><stop offset="0.989" stop-color="#a66613"/><stop offset="1" stop-color="#a66513"/></linearGradient><linearGradient id="c" x1="48.399" y1="0.064" x2="46.428" y2="1.293" xlink:href="#a"/></defs><g transform="translate(-185.215 -136.267)"><path class="a" d="M218,304.868a2.315,2.315,0,0,0-1.656-.534l-5.152-.44.32,3.1,5.273-.252A4.941,4.941,0,0,0,218,304.868Z" transform="translate(-15.784 -101.833)"/><path class="a" d="M211.965,304.021l-.36,8.289h-.8l-.32-8.69Z" transform="translate(-15.35 -101.667)"/><path class="a" d="M207.074,303.621l.32,8.69h-1.321l-1.2-8.57Z" transform="translate(-11.941 -101.667)"/><g transform="translate(195.855 136.267)"><path class="b" d="M376.553,427.552a16.735,16.735,0,0,0,1.568,3.288,31.617,31.617,0,0,0,6.817-4.153c-1.055-1.453-2.156-2.71-3.211-4.163C379.273,422.944,377.287,425.188,376.553,427.552Z" transform="translate(-312.093 -310.168)"/><path class="c" d="M235.175,431.152a5.366,5.366,0,0,1-.234,1.017,37,37,0,0,1-4.17,1.333c-1.411.383-2.558.65-2.558.65-4.246.119-8.422-.361-11.735-2.965-2.249-3.256-4.071-7.406-4.154-11.063.554-.628,1.131-1.252,1.7-1.876.228-.251.453-.5.678-.756.081-.988.071-1.838.152-2.826a3.651,3.651,0,0,1,2.474-.64,7.433,7.433,0,0,1,1.806.427,15.648,15.648,0,0,1,3.461,1.907c.775.533,1.535,1.092,2.294,1.609a10.1,10.1,0,0,1-.237,3.752c.944,1.738,2.15,3.8,3.792,4.909a4.68,4.68,0,0,0,1.525.693c.076.019.152.038.228.053.364.085.738.154,1.116.21h0a15.058,15.058,0,0,0,3.127.154A5.111,5.111,0,0,1,235.175,431.152Z" transform="translate(-212.324 -304.993)"/><path class="d" d="M237.313,431.067a7.86,7.86,0,0,0-2.407,1.945,7.657,7.657,0,0,1-1.337,1.424c-.371.213-.874.028-1.285-.05a14.44,14.44,0,0,1-3.485-1.139,2.469,2.469,0,0,1-.895-.624,2.542,2.542,0,0,1-.28-1.907l-.669.436a21,21,0,0,0-2.5-1.719,5.149,5.149,0,0,1-2.021-2.209,4.843,4.843,0,0,1-.048-2.83,14.383,14.383,0,0,0,.551-2.384c.029-.662-.12-1.142.517-1.59a3.109,3.109,0,0,1,1.208-.442,11.817,11.817,0,0,1,3.931-.138c.775.533,1.535,1.092,2.294,1.609a10.1,10.1,0,0,1-.237,3.752c1.216,2.237,2.862,5.01,5.317,5.6C236.4,430.91,236.855,431,237.313,431.067Z" transform="translate(-218.323 -308.474)"/><path class="b" d="M230.681,414.833a9.473,9.473,0,0,1-.147,3.579,5.757,5.757,0,0,1-.44,1.455,3.551,3.551,0,0,1-1.225.956,1.118,1.118,0,0,1-.872.015,9.554,9.554,0,0,1-4.387-2.178,4.474,4.474,0,0,1-1.274-3.421,6.936,6.936,0,0,0,1.6-2.493,7.2,7.2,0,0,1,4.506,1.26A4.122,4.122,0,0,0,230.681,414.833Z" transform="translate(-218.404 -304.216)"/><path class="e" d="M235.5,433.971a2.8,2.8,0,0,0,.676.608,22.138,22.138,0,0,0,4.1-1.369,8.813,8.813,0,0,0,.779-3.527,3.357,3.357,0,0,0-1.141-.68,11.723,11.723,0,0,1-4.151.656A20.722,20.722,0,0,1,235.5,433.971Z" transform="translate(-226.406 -314.103)"/><path class="e" d="M241.287,444.454c.55-.743,1.129-1.716,2.039-1.926a8.8,8.8,0,0,1,2.359-.278,3.671,3.671,0,0,0-.062-1.412,3.8,3.8,0,0,1-1.456-1.044c-.207.135-.3.156-.508.292.005-.174.012-.329.017-.5a2.863,2.863,0,0,1-1.146-1.019,7.608,7.608,0,0,0-2.2.152,4.032,4.032,0,0,0-1.849.853,2.155,2.155,0,0,0-.752,1.834,5.526,5.526,0,0,0,1.509,1.445.944.944,0,0,1,.443-.438c-.041.294-.086.507-.127.8A3.533,3.533,0,0,0,241.287,444.454Z" transform="translate(-227.746 -319.898)"/><path class="f" d="M235.175,437.717a5.368,5.368,0,0,1-.234,1.017,58.136,58.136,0,0,1-6.728,1.983c-4.246.119-8.422-.361-11.735-2.965-2.249-3.256-4.071-7.406-4.154-11.063.554-.628,1.131-1.252,1.7-1.876a12.36,12.36,0,0,0,.716,4.69c-.1.176-.256.342-.352.518a34.373,34.373,0,0,0,2.671,7.149,24.263,24.263,0,0,0,11.467,2.39c1.3-.053,2.049-1.5,2.523-2.691a10.68,10.68,0,0,0,2.482-1.27,4.449,4.449,0,0,1,.592.957,2.869,2.869,0,0,0,.563.872A1.243,1.243,0,0,0,235.175,437.717Z" transform="translate(-212.324 -311.558)"/><path class="g" d="M224.635,427.514l.94.884a6.352,6.352,0,0,1,4.568-2.023c.02.332.037.668.054,1l0,.053c-.011-.195-1.95.474-2.1.558a2.769,2.769,0,0,0-1.5,1.619,7.744,7.744,0,0,0,2.046.389c.5.028,1.069-.248,1.517.116a1.4,1.4,0,0,1,.4.831,7.352,7.352,0,0,1,.213,2.56c-1.411.383-2.558.65-2.558.65-4.246.119-8.422-.361-11.735-2.965-2.249-3.256-4.071-7.406-4.154-11.063.554-.628,1.131-1.252,1.7-1.876.228-.251.453-.5.678-.756.081-.988.071-1.838.152-2.826a3.651,3.651,0,0,1,2.474-.64,7.433,7.433,0,0,1,1.806.427,4.288,4.288,0,0,1-.259.775,9.65,9.65,0,0,1-1.26,2.083c-.554.706-.735,1.038-.115,1.835a4.948,4.948,0,0,0,3.916,1.917c.051-.2.106-.4.157-.608.622.389,1.246.775,1.868,1.161-.2.482-1.176,2.81-.648,3.182.257.181,1.122-.334,1.354-.411a8.161,8.161,0,0,1,1.8-.38l-2.843,1.563c.484.219.74.876,1.262.938a1.2,1.2,0,0,0,.552-.11,12.036,12.036,0,0,1,2.259-.823A20.3,20.3,0,0,1,224.635,427.514Z" transform="translate(-212.324 -304.993)"/><path class="h" d="M290.937,344.883c0,.094.008.185.008.276a8.722,8.722,0,0,1-.192,1.869,16.7,16.7,0,0,0-10.415,6.255c-.538-.113-1.233-.608-1.221-1.154a12.29,12.29,0,0,0-1.5-5.417c-3.741-3.513-6.831-4.674-8.577-8.118a20.753,20.753,0,0,1-.79-7.645c-1.671-4.366-2.357-9.332-5.395-14.059a31.792,31.792,0,0,0-6.314-2.566,5.9,5.9,0,0,0-1.873.825c-.524.743-1.026,1.5-1.521,2.271-2.074,3.228-4,6.578-6.677,9.182-.264.207-.532.408-.8.608-1.683,1.252-3.447,2.419-5.078,3.723a21.666,21.666,0,0,0-3.126,2.98,31.383,31.383,0,0,0-4.819,9.367,8.518,8.518,0,0,0,.809,3.008c-.15.458-.407.913-.892.954a19.384,19.384,0,0,1-7.553-.37,3,3,0,0,1-.495-.2,6.591,6.591,0,0,1-2.256-2.211,39.666,39.666,0,0,1-2.6-4.1,1.62,1.62,0,0,1,.732-1.1,7.187,7.187,0,0,0,3.019-3.661c.489-1.374.932-2.8,1.341-4.21.725-2.5,1.048-5.364,2.507-7.613a16.424,16.424,0,0,1,6.14-3.839,4.4,4.4,0,0,1-.211-1.233,4.977,4.977,0,0,1,1.581-.367,4,4,0,0,1-.136-1.4,32.1,32.1,0,0,0,8.874-10.05,2.648,2.648,0,0,1-.207-1.044c.259-.188.681-.449.94-.637-.071-1.575-.659-3.1-.183-4.577a22.159,22.159,0,0,1,2.1-4.624c7.755,2.958,16.408,4.213,24.4,2.754a7.946,7.946,0,0,1,.478,1.095,6,6,0,0,1,.307,1.267c-.175.241-.279.455-.455.7a52.275,52.275,0,0,1,6.7,20.446c0,.041-.013.078-.02.116a4.225,4.225,0,0,0-.288,1.446c.009.072.018.144.028.216.721,5.376,3.153,10.449,5.879,15.223a17.079,17.079,0,0,0,2.346,3.391,6.2,6.2,0,0,0,3.439,2.064A9.04,9.04,0,0,1,290.937,344.883Z" transform="translate(-216.772 -233.303)"/><path class="i" d="M271.02,299.847a36.578,36.578,0,0,1-21.347,2.764,9.523,9.523,0,0,0-2.475,2.964c-.124.254-.527.358-.736.555a2.6,2.6,0,0,0,.628.91c.547.408.9.913,1.411,1.364-.7-.213-1.423-.285-2.125-.5a40.454,40.454,0,0,1-7.423,10.192,2.431,2.431,0,0,0-1.008.21,2.007,2.007,0,0,0,.352.913c-.409-.034-.913.085-1.325.05.05,0,.547,1.164.63,1.28a4.918,4.918,0,0,0,1.29,1.23c-.915-.433-1.745-.64-2.66-1.069a15.765,15.765,0,0,0-5.2,5.652,27.806,27.806,0,0,0-2.491,6.729q-1.3,4.837-2.366,9.74a5.352,5.352,0,0,0,3.037,2.8,11.228,11.228,0,0,1-5.244-1.86c-.2.015-.456.188-.65.2a9.513,9.513,0,0,0,1.194,2.7,6.591,6.591,0,0,1-2.256-2.211,39.666,39.666,0,0,1-2.6-4.1,1.62,1.62,0,0,1,.732-1.1,7.187,7.187,0,0,0,3.019-3.661c.489-1.374.932-2.8,1.341-4.21.725-2.5,1.048-5.364,2.507-7.613a16.424,16.424,0,0,1,6.14-3.839,4.4,4.4,0,0,1-.211-1.233,4.977,4.977,0,0,1,1.581-.367,4,4,0,0,1-.136-1.4,32.1,32.1,0,0,0,8.874-10.05,2.648,2.648,0,0,1-.207-1.044c.259-.188.681-.449.94-.637-.071-1.575-.659-3.1-.183-4.577a22.159,22.159,0,0,1,2.1-4.624c7.755,2.958,16.408,4.213,24.4,2.754A7.946,7.946,0,0,1,271.02,299.847Zm-26.252,27.394c-.244,0-2.568-.27-2.585-.239a23.337,23.337,0,0,0-1.6,3.931c1.63-1.3,3.4-2.472,5.078-3.723C245.369,327.219,245.075,327.238,244.768,327.241Zm45.837,18.42a24.58,24.58,0,0,0-10.044,4.159,1.565,1.565,0,0,1-.41-1.041,5.693,5.693,0,0,0-1.661-3.749c-.944-1.048-2.089-1.895-3.109-2.87-3.156-3.037-3.408-7.817-5.108-11.823a102,102,0,0,1-4.564-13.376c.361.069.716-.141,1.073-.072a10.785,10.785,0,0,0-5.906-4.206c1.288-.86,2.73-1.879,4.018-2.738a33.749,33.749,0,0,0-7.22,2.666,9.855,9.855,0,0,0-3.284,2.51,12.015,12.015,0,0,0-1.25,2.3c.495-.768,1-1.528,1.521-2.271a5.9,5.9,0,0,1,1.873-.825,31.792,31.792,0,0,1,6.314,2.566c3.038,4.727,3.724,9.693,5.395,14.059a20.753,20.753,0,0,0,.79,7.645c1.746,3.444,4.837,4.6,8.577,8.118a12.29,12.29,0,0,1,1.5,5.417c-.012.546.683,1.041,1.221,1.154a16.7,16.7,0,0,1,10.415-6.255,8.722,8.722,0,0,0,.192-1.869C290.833,345.325,290.721,345.494,290.605,345.661Zm-13.058-23.288a3.309,3.309,0,0,1-3.467-.031c.654,1.032,1.184,2.165,1.839,3.2.1.17.241.354.435.364.252.016.391-.267.465-.5.144-.449.3-.907.467-1.365-.009-.072-.019-.144-.028-.216A4.225,4.225,0,0,1,277.547,322.372Z" transform="translate(-216.772 -233.303)"/><path class="h" d="M374.829,236.261c0,.308-.115.4-.153.7-.358-.016-.778.078-1.136.063-3.9,2.695-7.942,5.373-11.846,8.065a22.25,22.25,0,0,1-11.515-4.533l-3.265-15.267-.077-.354c.07.094.143.188.215.279q1.035,1.359,2.186,2.629a42.455,42.455,0,0,0,7.423,6.531l.133.094.016.009.006-.006a7.123,7.123,0,0,1,1.774-1.318l.034-.019a4.826,4.826,0,0,1,1.852,1.851,18.061,18.061,0,0,0,7.346-5.926c.181-.248.124-.568.165-.869a.908.908,0,0,1,.048-.2,8.179,8.179,0,0,1,5.031,3.168A8.449,8.449,0,0,1,374.829,236.261Z" transform="translate(-294.04 -190.132)"/><path class="i" d="M374.949,236.693c0,.308-.115.4-.153.7-.358-.016-.778.078-1.136.063-3.9,2.695-7.942,5.373-11.846,8.065a22.25,22.25,0,0,1-11.515-4.533l-3.265-15.267a1.508,1.508,0,0,1,.138-.075q1.035,1.359,2.186,2.629a66.621,66.621,0,0,0,5.183,12.118,10.443,10.443,0,0,0,5.417,1.365,3.9,3.9,0,0,1-.084-1.964,7.494,7.494,0,0,1,1.193,1.763c.087-.48.276-.91.363-1.393.2.445.46.947.654,1.393a23.39,23.39,0,0,0,8.361-5.869,31.567,31.567,0,0,0-2.338-7.064.911.911,0,0,1,.048-.2,8.179,8.179,0,0,1,5.031,3.168A8.45,8.45,0,0,1,374.949,236.693Z" transform="translate(-294.16 -190.564)"/><g transform="translate(27.886)"><path class="j" d="M306.214,152.524c-.1,1.067-.382,2.13-.475,3.209a30.092,30.092,0,0,0-.1,3.372q.027.87.1,1.744a11.031,11.031,0,0,1,.2,1.506.1.1,0,0,1-.02.053,18.078,18.078,0,0,1-5.711,2.751.875.875,0,0,0-.021.091c-.663,2.789-.175,5.461-.262,8.356a17.534,17.534,0,0,1-8.26-6.214,17.844,17.844,0,0,1-1.472-2.359.014.014,0,0,1,0-.01c-.252-.489-.483-.988-.686-1.5.044-.163.081-.326.111-.5a8.973,8.973,0,0,0,.118-2.221,12.013,12.013,0,0,0-.163-1.346c-.02-.116-.29-.339-.475-.5-.072-.063-.127-.113-.16-.148-.243-.26-.474-.533-.7-.809a14.926,14.926,0,0,1-2.736-5.451,12.48,12.48,0,0,1-.412-3.974,13.061,13.061,0,0,1,.254-2.048,4.1,4.1,0,0,1,.484-1.264,12.62,12.62,0,0,1,8.555-5.361c.259-.038.521-.069.777-.088a10.393,10.393,0,0,1,5.749,1.252,8.368,8.368,0,0,1,1.535,1.079,8.962,8.962,0,0,1,2.353,3.491,6.583,6.583,0,0,1,.577,1.879,1.392,1.392,0,0,1-.016.308c-.111.643-.23,1.4-.341,2.051a.636.636,0,0,1-.012.082A3.857,3.857,0,0,1,306.214,152.524Z" transform="translate(-284.401 -138.41)"/><path class="k" d="M302.444,142.154a4.6,4.6,0,0,0-1.319-.715,2.022,2.022,0,0,0-2.1.3,11.639,11.639,0,0,0-5.215-.718,5.221,5.221,0,0,0-4.171,2.911c.519.561.974,1.176,1.49,1.738a49.273,49.273,0,0,1,1.17,6.729c-.714-.8-.859-2.363-1.967-2.795a3.95,3.95,0,0,0-1.479.179,1.664,1.664,0,0,0-1.021,1.016,2.358,2.358,0,0,0,.447,1.857,7.3,7.3,0,0,0,2.5,2.406,13.515,13.515,0,0,1-.475,4.573,2.661,2.661,0,0,1-.572,1.176,12.013,12.013,0,0,0-.163-1.346c-.028-.157-.517-.518-.635-.646-.243-.26-.474-.533-.7-.809a14.926,14.926,0,0,1-2.736-5.451,12.48,12.48,0,0,1-.412-3.974,7.624,7.624,0,0,1,.738-3.313,12.62,12.62,0,0,1,8.555-5.361c.259-.038.521-.069.777-.088a10.393,10.393,0,0,1,5.749,1.252A8.368,8.368,0,0,1,302.444,142.154Z" transform="translate(-284.401 -138.41)"/><path class="l" d="M317.991,178.589a6.921,6.921,0,0,1-1.8-.106,2.294,2.294,0,0,1-1.469-1.022c.2-.181.394-.365.578-.546a2,2,0,0,0-1.486,1.294c.238-.172.474-.366.705-.568a2.262,2.262,0,0,0,1.11.991c1.961.8,4.113.09,6.2.349A19.148,19.148,0,0,0,317.991,178.589Z" transform="translate(-301.866 -160.961)"/><path class="l" d="M294.6,167.947a.354.354,0,0,1,.429.011,1.142,1.142,0,0,1,.164.3c.056.1.191.189.281.122.045-.033.061-.095.1-.132.1-.088.275.029.3.164a.875.875,0,0,1-.068.4,1.214,1.214,0,0,0,.415,1.226,1.075,1.075,0,0,0,1.215.029.816.816,0,0,1-1.081-.228,1.15,1.15,0,0,1-.077-1.159c.068-.141.158-.309.071-.446-.069-.108-.218-.135-.3-.231a.25.25,0,0,1-.036-.27c.044-.084.151-.232.246-.219a1.341,1.341,0,0,0-1.288-.183,1.249,1.249,0,0,0-.756,1.018A1.455,1.455,0,0,1,294.6,167.947Z" transform="translate(-289.964 -155.085)"/><path class="m" d="M299.309,148.69l-3.209,3.868.472-.643c.009-.013.021-.022.03-.035Q297.957,150.285,299.309,148.69Z" transform="translate(-291.103 -143.814)"/><path class="n" d="M305.939,168.763a.1.1,0,0,1-.02.053,18.077,18.077,0,0,1-5.711,2.751.877.877,0,0,0-.021.091,17.4,17.4,0,0,0-2.415.464c-1.473.417-2.828,1.173-4.322,1.521a6.067,6.067,0,0,1-1.785.157,14.224,14.224,0,0,1-1.472-2.359.014.014,0,0,1,0-.01,6.059,6.059,0,0,1-.57-1.948c0-.015,0-.028-.005-.044a8.973,8.973,0,0,0,.118-2.221,12.011,12.011,0,0,0-.163-1.345c-.02-.116-.29-.339-.475-.5-.072-.063-.127-.113-.16-.148-.243-.26-.474-.533-.7-.809a14.926,14.926,0,0,1-2.736-5.451,12.48,12.48,0,0,1-.412-3.974,13.062,13.062,0,0,1,.254-2.048c1.48-1.835,4.685-3.8,6.561-1.678a7.586,7.586,0,0,1,1.661,3.153c-.077-.307,2.121-1.223,2.394-1.329.757-.291,2-.984,2.846-.647.542.215.479.931.541,1.4a4.408,4.408,0,0,1-.253,2.172c-.086.22-.238.464-.478.46.229,0,.336-1.453.152-1.605-.306-.255-.964-.033-1.29.035a10.635,10.635,0,0,0-3.245,1.39,7.205,7.205,0,0,1,1.057,2.023c.143,3.689-.025,7.049,1.055,10.311,2.8,1.026,6.082-.75,8.918.157A1.1,1.1,0,0,1,305.939,168.763Zm-1.063-15.195a14.379,14.379,0,0,0-2.9-1.2,8.238,8.238,0,0,1-.633,2.594c.015-.009.034-.019.052-.028a28.374,28.374,0,0,1,3.626,1.352c.111-.649.23-1.408.341-2.051a1.392,1.392,0,0,0,.016-.308A2.2,2.2,0,0,0,304.875,153.568Z" transform="translate(-284.401 -144.818)"/><path class="o" d="M302.986,141.582c-.268-.038-.526-.063-.779-.119a2.674,2.674,0,0,1-.493-.157,5.155,5.155,0,0,0-1.268-.317,12.256,12.256,0,0,0-2.71-.144,13.373,13.373,0,0,0-5.2,1.374,12.592,12.592,0,0,0-1.244.709c-.281.182-.552.373-.82.571a18.585,18.585,0,0,0-5.868,7.971,22.142,22.142,0,0,1-1.219-5.722,6.922,6.922,0,0,1,1.059-4.416,9.7,9.7,0,0,1,1.87-2.03,13.377,13.377,0,0,1,1.315-.963,12.143,12.143,0,0,1,4.408-1.725,12.267,12.267,0,0,1,5.212-.107A8.492,8.492,0,0,1,302.986,141.582Z" transform="translate(-283.37 -136.267)"/><path class="p" d="M290.472,148.2a18.585,18.585,0,0,0-5.868,7.971,22.141,22.141,0,0,1-1.219-5.722,6.921,6.921,0,0,1,1.059-4.416,9.694,9.694,0,0,1,1.87-2.03,3.6,3.6,0,0,1,2.207.878,6.124,6.124,0,0,1,1.612,2.337A8.515,8.515,0,0,1,290.472,148.2Z" transform="translate(-283.37 -140.964)"/><path class="m" d="M306.9,143.291a6.983,6.983,0,0,1-1.328,3.836,9.955,9.955,0,0,0-.8-1.766,5.3,5.3,0,0,0-1.844-.606c-3.326-.618-7.337-.677-9.959,1.308a18.475,18.475,0,0,0-6.55,8.6c.085.235.2.492.29.731a5.9,5.9,0,0,1-.645-.659c.675-2.791,2.574-5.025,4.413-7.193l-.472.643,3.209-3.868q.35-.409.7-.819c.356-.42.712-.837,1.068-1.258a18.542,18.542,0,0,1,8.112-.533A7.117,7.117,0,0,1,306.9,143.291Z" transform="translate(-285.004 -139.447)"/><path class="q" d="M313,142.432a7.117,7.117,0,0,0-3.811-1.578,18.542,18.542,0,0,0-8.112.533c-.356.42-.712.837-1.068,1.258h-.016l-.681.819-3.209,3.868.472-.643,4.267-5.806a13.741,13.741,0,0,1,7.507-.521c4.4.841,4.516,1.722,4.516,1.722Z" transform="translate(-291.103 -138.588)"/><path class="r" d="M314.178,163.053s0,.006-.005.009a1.682,1.682,0,0,1-1.422.882h0a1.8,1.8,0,0,1-.367-.013,3.1,3.1,0,0,1-1.864-1.3,4.451,4.451,0,0,1,1.586-.941c.074-.025.148-.047.223-.069a4.488,4.488,0,0,1,.893-.166q.2-.019.394-.019a4.732,4.732,0,0,1,.667.047A3.214,3.214,0,0,1,314.178,163.053Zm5.5-.564v0a.349.349,0,0,0-.045-.028,4.092,4.092,0,0,0-.984-.524.238.238,0,0,0-.045-.013,3.416,3.416,0,0,0-.7-.166,2.749,2.749,0,0,0,.443,1.753,1.422,1.422,0,0,0,.286.317.689.689,0,0,0,.171.113.215.215,0,0,0,.038.019.753.753,0,0,0,.678-.082.545.545,0,0,0,.113-.078l.046-.038a2.494,2.494,0,0,0,.538-.8A3.247,3.247,0,0,0,319.676,162.488Z" transform="translate(-299.861 -151.558)"/><path class="k" d="M316.369,163.091a1.682,1.682,0,0,1-1.422.882h0a1.353,1.353,0,0,1-.212-.129,1.5,1.5,0,0,1-.489-.674,1.962,1.962,0,0,1,.056-1.449c.074-.025.148-.047.223-.069a4.489,4.489,0,0,1,.893-.166,1.724,1.724,0,0,1,.656.455A1.448,1.448,0,0,1,316.369,163.091Zm5.481-.571a.209.209,0,0,0-.024-.035,4.089,4.089,0,0,0-.984-.524.239.239,0,0,0-.045-.013.149.149,0,0,0-.039.038,1.827,1.827,0,0,0-.074,1.606,1.1,1.1,0,0,0,.139.26.684.684,0,0,0,.171.113.217.217,0,0,0,.038.019.753.753,0,0,0,.677-.082.546.546,0,0,0,.113-.079l.035-.066A1.377,1.377,0,0,0,321.85,162.52Z" transform="translate(-302.057 -151.587)"/><path class="k" d="M306.682,156.187c.086.185.128.367.217.552a11.2,11.2,0,0,1,5.448-1.982,8.253,8.253,0,0,0-.677-.96A8.535,8.535,0,0,0,306.682,156.187Zm8.312-2.142a5.257,5.257,0,0,1,0,.894,7.722,7.722,0,0,1,3.4,1.685c.033-.348,0-.489.04-.841A9.35,9.35,0,0,0,314.994,154.045Z" transform="translate(-297.532 -146.916)"/><path class="l" d="M326.955,161.1a14.364,14.364,0,0,1-2.163-3.4,11.092,11.092,0,0,0,.326-2.983l-.688,2.848a10.946,10.946,0,0,0,1.95,3.549,1.656,1.656,0,0,1-.5,1.194,2.17,2.17,0,0,1-2.323-.018.9.9,0,0,1-.193-.452.928.928,0,0,0,.056.694,3.121,3.121,0,0,0,2.982.454C326.94,162.758,327.076,161.917,326.955,161.1Z" transform="translate(-307.641 -147.474)"/></g><path class="h" d="M272.315,233.319c-.27.985-.936,2.685-.284,3.667.187.279.365.565.553.844a3.389,3.389,0,0,0-.128,1.142,2.244,2.244,0,0,1-.753.822,26.867,26.867,0,0,1-21.579,1.123c-.318-.179-.634-.373-.944-.587a8.563,8.563,0,0,1-3.539-4.263,1.23,1.23,0,0,1,.355-1.041,4.192,4.192,0,0,0,1.281-1.637c-.13-.48-.239-1-.366-1.484.448-1.443,1.383-3.036.933-4.517a37.333,37.333,0,0,0-2.878-7.453,17.2,17.2,0,0,1-1.747-2.033,14.506,14.506,0,0,1-5.024,1.088,8.291,8.291,0,0,0-4.54,1.408c-.04.028-.079.063-.115.094a3.612,3.612,0,0,1,.69,1.578c-.038.057-.077.113-.115.166a6.482,6.482,0,0,1-2.042,1.895c-.01.057-.02.113-.034.17-.4,2.089-1.141,4.1-1.106,6.242.013.7.033,1.405.047,2.1,0,.079.006.154.006.229a6.446,6.446,0,0,1-5.579,2.541,7.121,7.121,0,0,1-5.4-3.353c2.167-4.869,2.789-10.888,3.256-16.259a4.5,4.5,0,0,1,.865-2.208c2.3-.5,4.12-1.929,6.1-3.08a65.486,65.486,0,0,1,6.362-3.228c.5-1.167,1.123-2.437,1.632-3.607a.646.646,0,0,1,.031-.075,7.575,7.575,0,0,1,2.252-.232l.081-.085a20.362,20.362,0,0,1,3.175-2.713c.015-.013.034-.022.049-.034a11.9,11.9,0,0,1,4.21,1.283c.033-.038.066-.078.1-.116.3-.361.635-.718.931-1.079-.031-.52-.068-1.123-.1-1.644a4.293,4.293,0,0,1,1.207-.762c-.073.2-.151.376-.224.574a15.4,15.4,0,0,0,1.439,1.1,19.34,19.34,0,0,0,2.432,1.393c.375.182,4.534,2.07,4.551,2.02-.142.427-.135.973-.277,1.4.785.765,1.527,1.653,2.287,2.494-.026-.615-.125-1.12-.15-1.734a20.861,20.861,0,0,1,6.2-1.562c3.351,3.5,6.64,8.15,7.443,12.858.708,4.128,1.15,8.887-.006,12.638A19.785,19.785,0,0,0,272.315,233.319Z" transform="translate(-216.989 -173.906)"/><path class="s" d="M323.055,206.187a8.319,8.319,0,0,1,3.963.964c-.611.738-1.186,1.582-1.8,2.319.227,1.388.456,2.83.683,4.219a16.364,16.364,0,0,0,1.925,1.918,28.121,28.121,0,0,1-1.628,2.523,9.335,9.335,0,0,0-1.128-3.991c-.573-1.311-1.281-2.567-1.819-3.892A7.975,7.975,0,0,1,323.055,206.187Z" transform="translate(-279.494 -178.743)"/><path class="i" d="M325.775,218.335a18.035,18.035,0,0,0,1.361-2.548c-.555-.6-1.785-1.835-1.785-1.835a25.523,25.523,0,0,1-.852-4.531c.515-.735.95-1.608,1.465-2.343a13.952,13.952,0,0,0-3.335-.926,18.551,18.551,0,0,0-.243,5.91l.818.918c.031.521.087.968.118,1.488A14.147,14.147,0,0,1,325.775,218.335Z" transform="translate(-279.104 -178.722)"/><path class="i" d="M335.143,250.558a19.693,19.693,0,0,1-3.1,9.607c.59.924,1.285,1.718,1.874,2.642a12.785,12.785,0,0,1-1.953,3.2,8.915,8.915,0,0,0,1.3-3.524c-.544-.716-1.116-1.585-1.659-2.3,1.515-3.282,3.875-7.159,2.934-10.747q-1.381-5.266-3.17-10.43C333.43,242.448,334.558,247.269,335.143,250.558Z" transform="translate(-284.646 -198.681)"/><path class="i" d="M234.113,222.237a6.482,6.482,0,0,1-2.042,1.895c-.01.057-.02.113-.034.17a10.554,10.554,0,0,1-.195-3.256,17.657,17.657,0,0,0,1.616.988C233.576,222.089,233.88,222.149,234.113,222.237Zm14.52,13.382a12.736,12.736,0,0,0,5.1,2.4,10.174,10.174,0,0,1-5.369-4.737c.066-.605.265-1.393.328-2a13.654,13.654,0,0,0,2.8-4.144A27.15,27.15,0,0,0,245.538,214a16.086,16.086,0,0,0-2.472,2.189,8.2,8.2,0,0,0,.344-3.137c-.225,1.151-.383,2.645-1.418,3.175a19.229,19.229,0,0,1-7.7,2.315,14.508,14.508,0,0,0-1.5-2.961,9.058,9.058,0,0,1,.5,3.507,7.584,7.584,0,0,0-1.856-1.556q1.04,1.482,2.217,2.864a8.291,8.291,0,0,1,4.54-1.408,14.506,14.506,0,0,0,5.024-1.088,17.2,17.2,0,0,0,1.747,2.033,37.333,37.333,0,0,1,2.878,7.453c.451,1.481-.484,3.074-.933,4.517.127.48.236,1,.366,1.484A4.192,4.192,0,0,1,246,235.026a1.23,1.23,0,0,0-.355,1.041,8.563,8.563,0,0,0,3.539,4.263,8.987,8.987,0,0,1-1.71-2.732C247.834,236.992,248.266,236.224,248.633,235.618Zm-4.876-35.042a20.362,20.362,0,0,0-3.175,2.713,35.291,35.291,0,0,1,7.992,5.433A12.969,12.969,0,0,0,243.758,200.577Zm10.173,4.467c.073-.069.223-.3.292-.37a12.9,12.9,0,0,0,3.069.467c-.129-.533-.224-1.239-.353-1.773a13.4,13.4,0,0,1-5.571-3.41.341.341,0,0,0,0-.057,15.4,15.4,0,0,1-1.439-1.1c.073-.2.151-.373.224-.574a4.293,4.293,0,0,0-1.207.762c.031.521.068,1.123.1,1.644-.3.361-.626.718-.931,1.079a34.911,34.911,0,0,0,4.9,4.351c2.409,1.886,4.895,3.962,7.3,5.844A41.216,41.216,0,0,0,253.93,205.044Zm-28.9,9.191c4.188-2.177,8.456-4.391,12.723-6.415.917.179,1.935.226,2.853.408a12.8,12.8,0,0,0-1.056-2.855,4.593,4.593,0,0,0-1.328-1.691c-.51,1.17-1.128,2.441-1.632,3.607a65.486,65.486,0,0,0-6.362,3.228c-1.979,1.151-3.8,2.581-6.1,3.08a4.5,4.5,0,0,0-.865,2.208c-.467,5.37-1.09,11.39-3.256,16.259a7.121,7.121,0,0,0,5.4,3.353,6.446,6.446,0,0,0,5.579-2.541c0-.075,0-.151-.006-.229h0a15.181,15.181,0,0,1-7.615-.417,2.138,2.138,0,0,1-1.415-.979,2.187,2.187,0,0,1,.131-1.609A49.663,49.663,0,0,0,225.026,214.234Z" transform="translate(-216.989 -173.906)"/><path class="b" d="M231.485,283.826a5.673,5.673,0,0,1-4.609,1.813,6.2,6.2,0,0,1-4.451-2.516,12.118,12.118,0,0,1,5.886-1.315,5.435,5.435,0,0,1,1.764.372A3.846,3.846,0,0,1,231.485,283.826Z" transform="translate(-218.46 -224.67)"/><path class="s" d="M314.537,217.293A13.961,13.961,0,0,0,312,213.861c-.033-.552-.031-1.029-.064-1.581-.964-1.027-1.936-2.173-2.9-3.2.062-.5.088-1.011.15-1.508a23.579,23.579,0,0,1-5.067-2.42c1.909.758,3.747,1.444,5.656,2.2a14.541,14.541,0,0,1-.169,1.756,28.069,28.069,0,0,1,2.672,2.9c.039.561.118,1.184.157,1.745A12.919,12.919,0,0,1,314.537,217.293Z" transform="translate(-268.089 -178.114)"/><path class="t" d="M308.668,232.72a2.165,2.165,0,0,0,1.261.691,1.445,1.445,0,0,0,1.328-.806,2.753,2.753,0,0,0,.219-1.619,4,4,0,0,0-1.551-2.785c-.872-.615-3.02-.925-3.266.466C306.422,230.009,307.746,231.838,308.668,232.72Z" transform="translate(-269.616 -191.8)"/><path class="b" d="M408.016,242.332a5.907,5.907,0,0,1-3.847-2.886,16.49,16.49,0,0,1-1.661-4.556,7.478,7.478,0,0,1,4,2.518A8.616,8.616,0,0,1,408.016,242.332Z" transform="translate(-327.861 -196.18)"/><path class="i" d="M371.866,248.981l.133.094a.507.507,0,0,0-.095-.016C371.89,249.034,371.877,249.006,371.866,248.981Z" transform="translate(-309.246 -204.741)"/><path class="i" d="M374.393,250.129a6.263,6.263,0,0,0-.706-2.052,2.31,2.31,0,0,0-1.426-.888,7.121,7.121,0,0,1,1.774-1.318A10.069,10.069,0,0,1,374.393,250.129Z" transform="translate(-309.485 -202.852)"/><path class="u" d="M418.2,218.993a7.4,7.4,0,0,1-2.409,1.22c-.3.091-.611.166-.925.229-1.344.267-2.38,1.38-3.66,1.841a2.28,2.28,0,0,1-.859.238,1.045,1.045,0,0,1-.3-.056c.013.022.024.047.037.069a2.081,2.081,0,0,1,.208.991,1.351,1.351,0,0,1-.017.194.332.332,0,0,1-.009.079c-.456.213-.849.411-1.3.624a10.309,10.309,0,0,1-1.5-.756,11.261,11.261,0,0,1-2.831-2.45,10.994,10.994,0,0,1-2.408-5.047c.162-.339.252-.738.414-1.076.006.006.013.009.019.016a2.175,2.175,0,0,0,1.077.4c0-.031,0-.059,0-.091a6.734,6.734,0,0,0-.1-2.2,2.132,2.132,0,0,1,.313-1.443,4.726,4.726,0,0,0,2.4-1.857,4.977,4.977,0,0,0,.436-.756,3.572,3.572,0,0,1,1.658.056,12.37,12.37,0,0,1,3.261-3.14,5.093,5.093,0,0,1,2.894,2.39,5.373,5.373,0,0,1-.866,1.873,18.17,18.17,0,0,1,2.021,2.61,10.409,10.409,0,0,1,1.351,3.529c.158-.053.182-.006.343-.06A8.424,8.424,0,0,1,418.2,218.993Z" transform="translate(-327.684 -178.683)"/><path class="v" d="M418.151,224.359q-.815.659-1.689,1.249c-.3.091-.611.166-.925.229-1.344.267-2.38,1.38-3.66,1.841a2.28,2.28,0,0,1-.859.238,1.045,1.045,0,0,1-.3-.056c.013.022.024.047.037.069h-.006a2.078,2.078,0,0,1,.214.991,1.347,1.347,0,0,1-.017.194,6.246,6.246,0,0,0-.557-.424,1.016,1.016,0,0,0-.654-.273c.116.3.232.6.345.907a7.161,7.161,0,0,1-1.9-.929,2.919,2.919,0,0,0-.048.665,11.258,11.258,0,0,1-2.831-2.45,4.969,4.969,0,0,0,1.049.417,17.4,17.4,0,0,1-2.145-3.689,14.081,14.081,0,0,0,1.992,2.133,13.7,13.7,0,0,1-1.473-2.554c-.371-.841-.96-1.6-1.4-2.415a2.175,2.175,0,0,0,1.077.4c0-.031,0-.059,0-.091.152.194.29.4.43.612a25.142,25.142,0,0,0,1.844,2.409,2.8,2.8,0,0,0,2.011-.148,2.962,2.962,0,0,0,1.528-1.876,7.527,7.527,0,0,1-2.236-2.867,7.076,7.076,0,0,0,3.42,2.522,2.628,2.628,0,0,0,1.718-1.537,5.013,5.013,0,0,1-2.695-3.714,1.692,1.692,0,0,0-.855-1.252,3.868,3.868,0,0,1,1.6,1.365c.326.521.4,1.076.746,1.584a13.568,13.568,0,0,0,2.426-1.857,8.843,8.843,0,0,1-2.03,2.249,13.494,13.494,0,0,0,1.125,1.484,7.833,7.833,0,0,0,2.455-1.449,11.578,11.578,0,0,1-4.281,3.344,3.651,3.651,0,0,0,.577,1.659A17.546,17.546,0,0,0,417,222.085a20.773,20.773,0,0,1-3.576,1.575,3.284,3.284,0,0,0,.642,1.795A6.736,6.736,0,0,0,418.151,224.359Z" transform="translate(-328.354 -184.077)"/><path class="u" d="M231.268,293.58a5.3,5.3,0,0,1-1.6.919c-.161.292-.333.589-.515.887a6.811,6.811,0,0,1-3.381,3.178,4.213,4.213,0,0,1-2.311.1,2.794,2.794,0,0,1-.284-.339,3.292,3.292,0,0,0-.318-.389c-.1-.009-.2-.019-.29-.025a15.005,15.005,0,0,0-1.545-.041h0c-.232,0-.46.013-.692.025-.269.016-.538.034-.81.056-.025,0-.053,0-.078.006-.149.119-.3.182-.452.3a.066.066,0,0,0-.018.013,3.865,3.865,0,0,1-1.658-.207,15.438,15.438,0,0,1-2.4-5.019,1.817,1.817,0,0,1-.62-1.794c0-.009,0-.016.005-.025a2.89,2.89,0,0,1,1.061-.21c.056-.022.111-.044.167-.069a6.54,6.54,0,0,0,2.432-1.644c-.233-.009-.387-.245-.446-.474.1-.175.2-.411.3-.586a1.659,1.659,0,0,1-1.149-.693,1.688,1.688,0,0,1-.137-.8,8.324,8.324,0,0,1,4.98-2.315,8.9,8.9,0,0,1,5.477,1.289c.016.392,0,.847.014,1.239a1.53,1.53,0,0,0-.616.957c.647.1,1.2.37,1.851.473.76.922,1.446,2.039,2.206,2.961a5.027,5.027,0,0,1,.714,1.032C231.328,292.764,231.573,293.316,231.268,293.58Z" transform="translate(-213.5 -226.255)"/><path class="v" d="M222.29,287.928a1.194,1.194,0,0,0-.08.577,11.611,11.611,0,0,1,3.9.066,17.4,17.4,0,0,0-5.656,1.672,12.81,12.81,0,0,1-2.291,1.258,1.413,1.413,0,0,1-.674.082,6.541,6.541,0,0,0,2.432-1.644c-.233-.009-.387-.245-.446-.474.1-.175.2-.411.3-.586a1.659,1.659,0,0,1-1.149-.693,1.688,1.688,0,0,1-.137-.8,8.2,8.2,0,0,1,3.219-1.945,3.258,3.258,0,0,0,.288,1.5,15.88,15.88,0,0,1,6.023.367A21.507,21.507,0,0,0,222.29,287.928Z" transform="translate(-215.462 -226.89)"/><path class="v" d="M229.153,303.853a6.811,6.811,0,0,1-3.381,3.178,4.213,4.213,0,0,1-2.311.1,2.794,2.794,0,0,1-.284-.339c-.138-.376-.279-.756-.424-1.135-.307-.825-.618-1.653-.925-2.481q.3,1.614.741,3.2a15.014,15.014,0,0,0-1.545-.041h0a.488.488,0,0,0-.049-.122,20.086,20.086,0,0,1-1.613-3.733,17.879,17.879,0,0,0,.727,3.08c.065.2.135.524.243.8-.269.016-.538.035-.81.056-.089-.11-.175-.21-.215-.267-.174-.264-.342-.53-.5-.8a6.789,6.789,0,0,1-.863-1.616,20.976,20.976,0,0,0,.618,2.123,1.95,1.95,0,0,0,.434.866.064.064,0,0,0-.018.013,3.865,3.865,0,0,1-1.658-.207,15.437,15.437,0,0,1-2.4-5.019,1.817,1.817,0,0,1-.62-1.794,6.71,6.71,0,0,1,2.356.681,1.5,1.5,0,0,1,1.076-1.057c.412.176.718.361,1.126.533a1.75,1.75,0,0,1,1.028-.706c.3-.082.544.172.82.345a1.672,1.672,0,0,1,1.044-1.157c.358-.135.6.32.908.568a25.357,25.357,0,0,0,3.3,7.146A10.166,10.166,0,0,0,229.153,303.853Z" transform="translate(-213.5 -234.722)"/><path class="v" d="M244.091,299.371c.068.435-.045.705.444.923a2.431,2.431,0,0,0,.587.152,3.231,3.231,0,0,0-1.137.2c-.081.03-.624.366-.586.471a5.094,5.094,0,0,0,1.053,1.756,13.251,13.251,0,0,1,2.13-.169,10.665,10.665,0,0,1-2.388,1.041,7.777,7.777,0,0,0-1.613-2.874A2.855,2.855,0,0,0,244.091,299.371Z" transform="translate(-230.705 -235.352)"/><path class="c" d="M398.227,429.811a19.533,19.533,0,0,1-4.747,9.276,45.206,45.206,0,0,1-5.926,1.656,25.905,25.905,0,0,1-10.038.147,16.108,16.108,0,0,1-.7-3.413,11.794,11.794,0,0,1,.006-2.205,5.045,5.045,0,0,1-1.974-1.675,12.2,12.2,0,0,1,1.692-1.7s.006,0,.006,0c.255-.213.519-.42.79-.618a31.829,31.829,0,0,1,7.033-3.614,3.256,3.256,0,0,1,.383,1.822c.589.207,1.039.555,1.628.759a1.441,1.441,0,0,0,.19.05l.073.009a2.09,2.09,0,0,0,1.341-.411c.137-.091.284-.191.439-.3a18.515,18.515,0,0,0,1.5-1.1c.052-.041.1-.085.151-.129a3.328,3.328,0,0,1,1.282-.709,5.343,5.343,0,0,1,1.321-.223,18.036,18.036,0,0,1,2.653.144C396.587,427.7,397.405,428.835,398.227,429.811Z" transform="translate(-311.059 -313.144)"/><path class="f" d="M401.273,429.811c-.013.063-.026.122-.039.185a19.527,19.527,0,0,1-4.708,9.091,37.589,37.589,0,0,1-9.413,2.145,24.788,24.788,0,0,1-6.551-.342,16.107,16.107,0,0,1-.7-3.413,6.556,6.556,0,0,1,2.146-.066c.374.552.554,1.107.929,1.663A27.445,27.445,0,0,0,389.488,438a26.9,26.9,0,0,0,5.169-8.928,5.753,5.753,0,0,1,1.7-.881,1.144,1.144,0,0,0-.63-.753,18.035,18.035,0,0,1,2.653.144C399.632,427.7,400.451,428.835,401.273,429.811Z" transform="translate(-314.105 -313.144)"/><path class="d" d="M395.214,428.017a4.2,4.2,0,0,1-.155.718,9.305,9.305,0,0,1-1.172,2.227c-1.061,1.637-2.207,3.35-3.994,4.153a12.639,12.639,0,0,0-.878-.966c-1.344,1.017-3.429,2.036-5.214,1.054a6.988,6.988,0,0,1-2.61-3.567,31.838,31.838,0,0,1,7.033-3.614,3.256,3.256,0,0,1,.383,1.822c.589.207,1.039.555,1.628.759a1.876,1.876,0,0,0,1.6-.351,21.256,21.256,0,0,0,2.092-1.528A3.328,3.328,0,0,1,395.214,428.017Z" transform="translate(-314.911 -313.505)"/><path class="e" d="M392.369,432.8c-.828-.708-1.67-1.5-2.5-2.2a6.1,6.1,0,0,1,5.308-2.411,3.182,3.182,0,0,1,.893,1.418,5.469,5.469,0,0,0,2.257-.8c.153.1.26.251.413.35a3.632,3.632,0,0,0-.734,2.384,5.291,5.291,0,0,1-2.488,1.373c-.04-.166-.121-.217-.161-.382-.1.265-.31.529-.415.794-.347-.023-.841.009-1.188-.013a1.093,1.093,0,0,1-.644-.182c-.177-.147-.221-.467-.027-.573C392.9,432.626,392.551,432.724,392.369,432.8Z" transform="translate(-320.184 -313.596)"/><path class="g" d="M393.319,433.992a14.234,14.234,0,0,1-4.894,7.469c-.282.223-.571.436-.871.634a25.9,25.9,0,0,1-10.038.147,16.107,16.107,0,0,1-.7-3.413,11.793,11.793,0,0,1,.006-2.205,5.045,5.045,0,0,1-1.974-1.675,12.189,12.189,0,0,1,1.692-1.7s.006,0,.006,0c1.556-.972,5.321-3.237,5.342-3.178a7.871,7.871,0,0,0,1.437,2.51,2.58,2.58,0,0,1,1.268-1.186c-.283.586-.569,1.173-.852,1.76q.877.16,1.755.326a3.412,3.412,0,0,1,1.075-1.832.659.659,0,0,1,.069-.063l0,.072.078,1.428c.509-.2,1.022-.392,1.532-.587a2.411,2.411,0,0,1,1.71-2.848l-.039.2q-.29,1.529-.579,3.065a5.2,5.2,0,0,1,1.262-1.725,1.868,1.868,0,0,1,2.045-.245C393.633,431.517,393.6,432.925,393.319,433.992Z" transform="translate(-311.059 -314.495)"/><path class="w" d="M412.452,433.176a19.528,19.528,0,0,1-4.708,9.091,37.589,37.589,0,0,1-9.413,2.145A9.37,9.37,0,0,0,401.2,442.6a37.693,37.693,0,0,0,6.377-9.448A6.143,6.143,0,0,1,412.452,433.176Z" transform="translate(-325.323 -316.324)"/></g><path class="v" d="M185.215,323.253l.747,10.038,1.281.107.641,8.65,27.017,3.524-.854-9.4-1.281-.748-.641-12.387Z" transform="translate(0 -113.464)"/><path class="u" d="M253.776,323.04h15.271l.107,11.64-.961.427-.32,8.756-11.319,1.709-.854-9.4-1.281-.748Z" transform="translate(-41.65 -113.464)"/><path class="v" d="M255.408,353.443l14.737-.748-14.1,2.029Z" transform="translate(-42.642 -131.48)"/><path class="v" d="M276.123,332.018l-.854.641v15.164l2.243-.214v-14.1Z" transform="translate(-54.708 -118.918)"/><path class="a" d="M277.445,332.018v15.057l.748.107.427-15.164Z" transform="translate(-56.03 -118.918)"/><path class="c" d="M279.777,331.688l-.427,15.164,1.815-.214.854-15.164Z" transform="translate(-57.187 -118.588)"/><path class="a" d="M208.885,341l.534,7.689,4.058.427-.214-7.8Z" transform="translate(-14.379 -124.373)"/><path class="c" d="M210.517,345.016l3.738.747.214,3.844.961.107v-7.9h-1.175v2.776Z" transform="translate(-15.371 -124.869)"/><path class="a" d="M244.253,302.011a2.312,2.312,0,0,1,1.655-.534l5.153-.44-.321,3.1-5.273-.252A4.938,4.938,0,0,1,244.253,302.011Z" transform="translate(-35.866 -100.097)"/><path class="a" d="M258.537,301.165l.36,8.289h.8l.32-8.69Z" transform="translate(-44.543 -99.932)"/><path class="c" d="M261.816,300.764l-.32,8.69h1.322l1.2-8.57Z" transform="translate(-46.34 -99.932)"/></g></svg>