<svg xmlns="http://www.w3.org/2000/svg" width="44.023" height="46" viewBox="0 0 44.023 46"><defs><style>.a{fill:#1a2b63;}.b{fill:#d9eafc;}.c{fill:#aec1ed;}.d{fill:#445ea0;}.e{fill:#293d7c;}.f{fill:#fe3745;}.g{fill:#b7092b;}.h{fill:#eef6ff;}.i{fill:#ea2a3d;}.j{fill:#69cdff;}.k{fill:#52bbef;}.l{fill:#ffd00d;}.m{fill:#ffaf10;}.n{fill:#fff;}.o{fill:#ff9518;}.p{fill:#ef8318;}</style></defs><g transform="translate(-0.988)"><circle class="a" cx="22.012" cy="22.012" r="22.012" transform="translate(0.988 1.977)"/><path class="b" d="M19.478,34.044a3.32,3.32,0,0,1,2.8,1.529.09.09,0,0,0,.069.041h.007a.09.09,0,0,0,.067-.03,4.864,4.864,0,0,1,5.018-1.45l-1.6-4.11H20.163l-1.621,4.155A3.316,3.316,0,0,1,19.478,34.044Z"/><path class="c" d="M20.9,30.024h-.74l-1.621,4.155a3.328,3.328,0,0,1,.79-.129Z"/><path class="c" d="M17.752,38.291a.09.09,0,0,0,.089.077h.014a6.114,6.114,0,0,1,.957-.077,6.035,6.035,0,0,1,4.127,1.625.09.09,0,0,0,.123,0,6.034,6.034,0,0,1,4.127-1.625,6.114,6.114,0,0,1,.957.077h.014a.09.09,0,0,0,.089-.077,7.434,7.434,0,0,1,1.218-3.1,4.957,4.957,0,0,0-7.111.333,3.419,3.419,0,0,0-5.676-.114A7.431,7.431,0,0,1,17.752,38.291Z"/><path class="d" d="M17.841,38.277A7.551,7.551,0,0,0,4.075,35.232a22.11,22.11,0,0,0,8.656,8.227A6.149,6.149,0,0,1,17.841,38.277Z"/><path class="e" d="M11.127,32.774A7.948,7.948,0,0,1,16.2,34.592a7.549,7.549,0,0,0-12.122.64q.268.45.557.885A7.972,7.972,0,0,1,11.127,32.774Z"/><path class="d" d="M35.627,31.845a7.552,7.552,0,0,0-7.468,6.432,6.149,6.149,0,0,1,5.11,5.182,22.112,22.112,0,0,0,8.656-8.227A7.542,7.542,0,0,0,35.627,31.845Z"/><path class="e" d="M36.084,31.859c-.151-.009-.3-.014-.457-.014a7.552,7.552,0,0,0-7.468,6.432,6.1,6.1,0,0,1,.824.191A8.53,8.53,0,0,1,36.084,31.859Z"/><path class="e" d="M27.188,38.2A6.123,6.123,0,0,0,23,39.849a6.144,6.144,0,0,0-10.27,3.612,22.036,22.036,0,0,0,20.54,0A6.147,6.147,0,0,0,27.188,38.2Z"/><path class="a" d="M20.1,38.964a6.388,6.388,0,0,1,2.4.464,6.143,6.143,0,0,0-9.764,4.033q.542.287,1.1.543A6.415,6.415,0,0,1,20.1,38.964Z"/><path class="c" d="M25.024,30.024H23.666l.173,1.371a.674.674,0,0,0,1.337-.169Z"/><path class="c" d="M20.976,30.024l-.356,2.819a.674.674,0,0,0,.584.753.686.686,0,0,0,.085.005.674.674,0,0,0,.668-.589l.378-2.988H20.976Z"/><path class="f" d="M16.092,17.584q0-1.1.079-2.189a8.024,8.024,0,0,0-3.651,7.069,9.053,9.053,0,0,0,1.192,4.573.4.4,0,0,0,.494.167,8.745,8.745,0,0,1,3.256-.643A29.32,29.32,0,0,1,16.092,17.584Z"/><path class="g" d="M13.538,22.464a8.46,8.46,0,0,1,2.588-6.3c.012-.256.026-.512.044-.767a8.024,8.024,0,0,0-3.651,7.069,9.053,9.053,0,0,0,1.192,4.573.4.4,0,0,0,.494.167c.169-.069.341-.131.513-.188A9.057,9.057,0,0,1,13.538,22.464Z"/><path class="f" d="M29.829,15.4q.077,1.088.079,2.189a29.319,29.319,0,0,1-1.37,8.977,8.745,8.745,0,0,1,3.256.643.4.4,0,0,0,.494-.167,9.052,9.052,0,0,0,1.192-4.573A8.023,8.023,0,0,0,29.829,15.4Z"/><path class="f" d="M19.56,27.593v2.071a.451.451,0,0,0,.449.449h5.982a.451.451,0,0,0,.449-.449V27.593Z"/><path class="g" d="M21.088,29.665V27.593H19.56v2.071a.451.451,0,0,0,.449.449h1.528A.451.451,0,0,1,21.088,29.665Z"/><path class="h" d="M28.467,8.115H17.533A29.132,29.132,0,0,0,16,17.584a29.014,29.014,0,0,0,1.66,9.838.4.4,0,0,0,.373.261h9.929a.4.4,0,0,0,.373-.261A29.014,29.014,0,0,0,30,17.584,29.128,29.128,0,0,0,28.467,8.115Z"/><path class="b" d="M18.935,27.422a29.012,29.012,0,0,1-1.66-9.838,29.132,29.132,0,0,1,1.531-9.469H17.533A29.132,29.132,0,0,0,16,17.584a29.014,29.014,0,0,0,1.66,9.838.4.4,0,0,0,.373.261h1.273A.4.4,0,0,1,18.935,27.422Z"/><path class="i" d="M20.411,8.115V9.605a.451.451,0,0,0,.449.449h4.28a.451.451,0,0,0,.449-.449V8.115Z"/><path class="g" d="M21.429,9.605V8.115H20.411V9.605a.451.451,0,0,0,.449.449h1.019A.451.451,0,0,1,21.429,9.605Z"/><path class="f" d="M23,0a.4.4,0,0,0-.25.089,17.132,17.132,0,0,0-4.888,7.129c-.127.323-.246.653-.36.986h11c-.114-.333-.233-.663-.36-.986A17.131,17.131,0,0,0,23.25.089.4.4,0,0,0,23,0Z"/><path class="g" d="M23.637.416Q23.445.247,23.25.089a.4.4,0,0,0-.5,0,17.132,17.132,0,0,0-4.888,7.129c-.127.323-.246.653-.36.986h1.273c.114-.333.233-.663.36-.986A17.546,17.546,0,0,1,23.637.416Z"/><circle class="d" cx="4.584" cy="4.584" r="4.584" transform="translate(18.416 11.672)"/><circle class="j" cx="2.941" cy="2.941" r="2.941" transform="translate(20.059 13.315)"/><path class="k" d="M21.137,16.256a2.941,2.941,0,0,0,2.4,2.891,2.941,2.941,0,1,1,0-5.781A2.941,2.941,0,0,0,21.137,16.256Z"/><path class="l" d="M9.9,16.058A.255.255,0,0,1,9.66,15.9a3.07,3.07,0,0,0-2.082-2.082.255.255,0,0,1,0-.471A3.07,3.07,0,0,0,9.66,11.266a.255.255,0,0,1,.471,0,3.071,3.071,0,0,0,2.082,2.082.255.255,0,0,1,0,.471A3.07,3.07,0,0,0,10.13,15.9a.255.255,0,0,1-.235.157Z"/><path class="m" d="M10.169,15.392a3.07,3.07,0,0,0-2.082-2.082.254.254,0,0,1-.133-.127c-.116.054-.24.109-.376.165a.255.255,0,0,0,0,.471A3.07,3.07,0,0,1,9.66,15.9a.255.255,0,0,0,.471,0c.056-.136.111-.26.165-.376A.255.255,0,0,1,10.169,15.392Z"/><path class="n" d="M36.968,18.095a.224.224,0,0,1-.207-.138,2.7,2.7,0,0,0-1.83-1.83.224.224,0,0,1,0-.414,2.7,2.7,0,0,0,1.83-1.83.224.224,0,0,1,.414,0,2.7,2.7,0,0,0,1.831,1.83.224.224,0,0,1,0,.414,2.7,2.7,0,0,0-1.83,1.83.224.224,0,0,1-.207.138Z"/><path class="b" d="M37.209,17.509a2.7,2.7,0,0,0-1.83-1.83.224.224,0,0,1-.117-.112c-.1.048-.211.1-.331.145a.224.224,0,0,0,0,.414,2.7,2.7,0,0,1,1.83,1.83.224.224,0,0,0,.414,0c.05-.12.1-.229.145-.331A.224.224,0,0,1,37.209,17.509Z"/><path class="o" d="M34.632,8.631a.261.261,0,0,1-.241-.161,3.143,3.143,0,0,0-2.133-2.133.261.261,0,0,1,0-.482,3.144,3.144,0,0,0,2.133-2.133.261.261,0,0,1,.482,0,3.144,3.144,0,0,0,2.133,2.133.261.261,0,0,1,0,.482A3.144,3.144,0,0,0,34.873,8.47a.261.261,0,0,1-.241.161Z"/><path class="p" d="M34.913,7.949A3.144,3.144,0,0,0,32.78,5.816a.261.261,0,0,1-.136-.13c-.119.056-.246.112-.386.169a.261.261,0,0,0,0,.482A3.144,3.144,0,0,1,34.391,8.47a.261.261,0,0,0,.482,0c.058-.139.114-.266.169-.385A.261.261,0,0,1,34.913,7.949Z"/></g></svg>