<svg xmlns="http://www.w3.org/2000/svg" width="46" height="45.975" viewBox="0 0 46 45.975"><defs><style>.a{fill:#484b7f;}.b{fill:#f0f0f0;}.c{fill:#ff668c;}.d{fill:#9fc5e6;}.e{fill:#5897d1;}.f{fill:#ef487d;}</style></defs><g transform="translate(0 -0.013)"><circle class="a" cx="22.951" cy="22.951" r="22.951" transform="translate(0 0.086)"/><circle class="b" cx="19.565" cy="19.565" r="19.565" transform="translate(3.385 3.471)"/><path class="c" d="M22.951,37.917A14.881,14.881,0,1,1,37.832,23.036,14.9,14.9,0,0,1,22.951,37.917Z"/><path class="b" d="M22.951,33.234a10.2,10.2,0,1,1,10.2-10.2A10.209,10.209,0,0,1,22.951,33.234Z"/><path class="c" d="M22.951,28.55a5.514,5.514,0,1,1,5.513-5.514A5.52,5.52,0,0,1,22.951,28.55Z"/><path class="d" d="M41.837,5.968,23.813,23.992a1.268,1.268,0,0,1-1.792,0h0a1.268,1.268,0,0,1,0-1.792L40.044,4.176Z"/><path class="e" d="M41.837,5.968,23.813,23.992a1.268,1.268,0,0,1-1.792,0h0L40.94,5.072Z"/><path class="c" d="M31.486,6.951,38.425.013l1.619,4.163-6.939,6.939Z"/><path class="f" d="M33.048,5.39l1.041-1.041,1.619,4.163L34.667,9.553Z"/><path class="f" d="M35.592,2.846l1.041-1.041,1.619,4.163L37.211,7.009Z"/><path class="f" d="M41.837,5.968,34.9,12.907l4.163,1.619L46,7.587Z"/><path class="c" d="M40.044,7.761,39,8.8l4.163,1.619L44.208,9.38Z"/><path class="c" d="M37.5,10.305l-1.041,1.041,4.163,1.619,1.041-1.041Z"/></g></svg>