<svg xmlns="http://www.w3.org/2000/svg" width="57.585" height="60.267" viewBox="0 0 57.585 60.267">
  <g id="gift" transform="translate(0 17.568) rotate(-25)">
    <path id="Path_869" data-name="Path 869" d="M41.569,33.073V13.212a2.867,2.867,0,0,0-1.434-2.483L22.218.384a2.867,2.867,0,0,0-2.867,0L1.434,10.729A2.867,2.867,0,0,0,0,13.212V33.073a2.867,2.867,0,0,0,1.434,2.483L19.351,45.9a2.867,2.867,0,0,0,2.867,0L40.136,35.556A2.867,2.867,0,0,0,41.569,33.073Z" transform="translate(0 0)" fill="#ff4755"/>
    <path id="Path_870" data-name="Path 870" d="M40.136,2.483,22.218,12.828a2.867,2.867,0,0,1-2.867,0L1.434,2.483A2.867,2.867,0,0,1,0,0V1.71A2.867,2.867,0,0,0,1.434,4.193L19.351,14.537a2.867,2.867,0,0,0,2.867,0L40.135,4.193A2.867,2.867,0,0,0,41.569,1.71V0A2.867,2.867,0,0,1,40.136,2.483Z" transform="translate(0 32.191)" fill="#fc2b3a"/>
    <path id="Path_871" data-name="Path 871" d="M33.965,27.631V10.005a.475.475,0,0,0-.237-.411L17.22.064a.475.475,0,0,0-.475,0L.238,9.594A.475.475,0,0,0,0,10.005V27.631l.993,1.455,15.99,9.232,15.99-9.232Z" transform="translate(3.802 4.02)" fill="#fff5f5"/>
    <path id="Path_872" data-name="Path 872" d="M0,0V1.436a.475.475,0,0,0,.237.411l16.507,9.531a.475.475,0,0,0,.475,0L33.727,1.847a.475.475,0,0,0,.237-.411V0L17.22,9.668a.475.475,0,0,1-.475,0Z" transform="translate(3.802 31.651)" fill="#efe2dd"/>
    <g id="XMLID_22_" transform="translate(15.08 7.467) rotate(25)">
      <path id="XMLID_143_" d="M18.622,0V.5c0,2.819-4.735,5.1-10.574,5.1A16.887,16.887,0,0,1,0,3.813c.654,2.54,5.1,4.642,10.488,4.642,5.84,0,10.574-2.468,10.574-5.287,0-1.24-.918-2.332-2.44-3.168" transform="translate(2.526 11.88)" fill="#fcc62d"/>
      <path id="XMLID_142_" d="M10.574,5.287C4.735,5.287,0,2.819,0,0V3.436C0,6.255,4.735,8.541,10.574,8.541S21.149,6.255,21.149,3.436V0c0,2.819-4.735,5.287-10.574,5.287" transform="translate(2.44 15.048)" fill="#e4af18"/>
      <path id="XMLID_141_" d="M0,3.4a6.61,6.61,0,0,0,.813.628V.652A6.758,6.758,0,0,1,0,0Z" transform="translate(3.66 17.489)" fill="#ce9912"/>
      <path id="XMLID_140_" d="M0,.652V4.024A6.569,6.569,0,0,0,.813,3.4V0A6.693,6.693,0,0,1,0,.652" transform="translate(21.556 17.489)" fill="#ce9912"/>
      <path id="XMLID_139_" d="M0,3.351q.386.2.813.378V.4Q.386.209,0,0Z" transform="translate(5.287 18.636)" fill="#ce9912"/>
      <path id="XMLID_138_" d="M0,3.729q.427-.178.813-.378V0Q.428.209,0,.4Z" transform="translate(19.929 18.635)" fill="#ce9912"/>
      <path id="XMLID_137_" d="M0,3.315q.394.135.813.252V.267Q.394.142,0,0Z" transform="translate(6.914 19.357)" fill="#ce9912"/>
      <path id="XMLID_136_" d="M0,3.567q.419-.117.813-.252V0Q.419.142,0,.267Z" transform="translate(18.302 19.357)" fill="#ce9912"/>
      <path id="XMLID_135_" d="M0,3.281c.266.054.537.1.813.144V.154C.537.108.266.057,0,0Z" transform="translate(8.948 19.935)" fill="#ce9912"/>
      <path id="XMLID_134_" d="M0,3.426c.276-.043.548-.091.813-.144V0C.548.057.276.108,0,.155Z" transform="translate(16.268 19.935)" fill="#ce9912"/>
      <path id="XMLID_133_" d="M0,3.258c.268.02.539.034.813.044V.047C.539.036.268.022,0,0Z" transform="translate(11.388 20.29)" fill="#ce9912"/>
      <path id="XMLID_132_" d="M0,3.3c.274-.01.546-.024.813-.044V0C.546.022.274.036,0,.047Z" transform="translate(13.828 20.29)" fill="#ce9912"/>
      <path id="XMLID_131_" d="M10.574,5.287C4.735,5.287,0,2.819,0,0V3.436C0,6.255,4.735,8.541,10.574,8.541S21.149,6.255,21.149,3.436V0c0,2.819-4.735,5.287-10.574,5.287" transform="translate(0 8.945)" fill="#e4af18"/>
      <path id="XMLID_130_" d="M0,3.4a6.611,6.611,0,0,0,.813.628V.652A6.8,6.8,0,0,1,0,0Z" transform="translate(1.22 11.385)" fill="#ce9912"/>
      <path id="XMLID_129_" d="M0,.652V4.024A6.572,6.572,0,0,0,.813,3.4V0A6.7,6.7,0,0,1,0,.652" transform="translate(19.115 11.385)" fill="#ce9912"/>
      <path id="XMLID_128_" d="M0,3.351q.386.2.813.378V.4Q.386.209,0,0V3.351Z" transform="translate(2.847 12.532)" fill="#ce9912"/>
      <path id="XMLID_127_" d="M0,3.729q.427-.178.813-.378V0Q.428.209,0,.4Z" transform="translate(17.489 12.532)" fill="#ce9912"/>
      <path id="XMLID_126_" d="M0,3.315q.394.135.813.252V.267Q.394.142,0,0Z" transform="translate(4.474 13.253)" fill="#ce9912"/>
      <path id="XMLID_125_" d="M0,3.567q.419-.117.813-.252V0Q.419.142,0,.267Z" transform="translate(15.862 13.253)" fill="#ce9912"/>
      <path id="XMLID_124_" d="M0,3.281c.266.054.537.1.813.144V.154C.537.108.266.057,0,0Z" transform="translate(6.507 13.832)" fill="#ce9912"/>
      <path id="XMLID_123_" d="M0,3.426c.276-.043.548-.091.813-.144V0C.548.057.276.108,0,.155Z" transform="translate(13.828 13.832)" fill="#ce9912"/>
      <path id="XMLID_122_" d="M0,3.258c.268.02.539.034.813.044V.047C.539.036.268.022,0,0Z" transform="translate(8.948 14.187)" fill="#ce9912"/>
      <path id="XMLID_121_" d="M0,3.3c.274-.01.546-.024.813-.044V0C.546.022.274.036,0,.047Z" transform="translate(11.388 14.186)" fill="#ce9912"/>
      <path id="XMLID_120_" d="M15.453,0c-1.089,2.26-5.284,3.944-10.3,3.944A19.962,19.962,0,0,1,0,3.3,13.94,13.94,0,0,0,7.6,5.151c5.565,0,8.948-2.16,8.948-3.647A2.037,2.037,0,0,0,15.453,0" transform="translate(5.419 13.544)" fill="#ffd949"/>
      <path id="XMLID_119_" d="M12.608,7.4C6.768,7.4,2.034,5.118,2.034,2.3V0A3.638,3.638,0,0,0,0,2.93C0,5.749,4.735,8.217,10.574,8.217a17.16,17.16,0,0,0,7.259-1.481,19.889,19.889,0,0,1-5.226.668" transform="translate(0 6.018)" fill="#ffd949"/>
      <path id="XMLID_118_" d="M10.574,5.287C4.735,5.287,0,2.819,0,0V3.436C0,6.255,4.735,8.541,10.574,8.541S21.149,6.255,21.149,3.436V0c0,2.819-4.735,5.287-10.574,5.287" transform="translate(2.034 4.878)" fill="#e4af18"/>
      <path id="XMLID_117_" d="M0,3.4a6.611,6.611,0,0,0,.813.628V.652A6.8,6.8,0,0,1,0,0Z" transform="translate(3.254 7.318)" fill="#ce9912"/>
      <path id="XMLID_116_" d="M0,.652V4.024A6.572,6.572,0,0,0,.813,3.4V0A6.7,6.7,0,0,1,0,.652" transform="translate(21.149 7.318)" fill="#ce9912"/>
      <path id="XMLID_115_" d="M0,3.351q.386.2.813.378V.4Q.386.209,0,0Z" transform="translate(4.881 8.465)" fill="#ce9912"/>
      <path id="XMLID_114_" d="M0,3.729q.427-.178.813-.378V0Q.428.209,0,.4Z" transform="translate(19.522 8.465)" fill="#ce9912"/>
      <path id="XMLID_113_" d="M0,3.315q.394.135.813.252V.267Q.394.142,0,0Z" transform="translate(6.507 9.186)" fill="#ce9912"/>
      <path id="XMLID_112_" d="M0,3.567q.419-.117.813-.252V0Q.419.142,0,.267Z" transform="translate(17.895 9.186)" fill="#ce9912"/>
      <path id="XMLID_111_" d="M0,3.281c.266.054.537.1.813.144V.154C.537.108.266.057,0,0Z" transform="translate(8.541 9.765)" fill="#ce9912"/>
      <path id="XMLID_110_" d="M0,3.426c.276-.043.548-.091.813-.144V0Q.415.085,0,.155Z" transform="translate(15.862 9.765)" fill="#ce9912"/>
      <path id="XMLID_109_" d="M0,3.258c.268.02.539.034.813.044V.047C.539.036.268.022,0,0Z" transform="translate(10.981 10.12)" fill="#ce9912"/>
      <path id="XMLID_108_" d="M0,3.3c.274-.01.546-.024.813-.044V0C.546.022.274.036,0,.047Z" transform="translate(13.421 10.119)" fill="#ce9912"/>
      <path id="XMLID_107_" d="M21.149,4.881c0,2.819-4.735,5.287-10.574,5.287S0,7.7,0,4.881,4.735,0,10.574,0,21.149,2.061,21.149,4.881" transform="translate(2.034 0)" fill="#fcc62d"/>
      <path id="XMLID_106_" d="M8.948,7.307C3.383,7.307,0,5.147,0,3.66S3.383,0,8.948,0,17.9,2.174,17.9,3.66,14.512,7.307,8.948,7.307" transform="translate(3.66 1.22)" fill="#ffd949"/>
      <path id="XMLID_105_" d="M6.418,2.586c.334-.071.529-.277.457-.511L6.8,1.824a.762.762,0,0,0-.546-.414C5.885.626,4.949.342,3.56.342c-.066,0-.13,0-.194,0A3.549,3.549,0,0,1,2.05.185,1.47,1.47,0,0,1,1.7.013C1.66-.014,1.571,0,1.571.038a1.268,1.268,0,0,0,.017.208c.05.3-.01.258-.31.561a2.05,2.05,0,0,0-.413.6.762.762,0,0,0-.543.414l-.077.251c-.072.235.124.44.457.511A1.8,1.8,0,0,0,2.095,4l-.049.422a.355.355,0,0,1-.252.268L0,5.342a17.4,17.4,0,0,0,3.56.352,17.479,17.479,0,0,0,3.516-.342L5.321,4.7a.354.354,0,0,1-.246-.266L5.025,4A1.8,1.8,0,0,0,6.418,2.586" transform="translate(8.948 2.847)" fill="#f0c41b"/>
    </g>
  </g>
</svg>
