<svg xmlns="http://www.w3.org/2000/svg" width="61.982" height="60.219" viewBox="0 0 61.982 60.219">
  <g id="gift" transform="translate(39.954) rotate(58)">
    <path id="Path_869" data-name="Path 869" d="M41.569,33.073V13.212a2.867,2.867,0,0,0-1.434-2.483L22.218.384a2.867,2.867,0,0,0-2.867,0L1.434,10.729A2.867,2.867,0,0,0,0,13.212V33.073a2.867,2.867,0,0,0,1.434,2.483L19.351,45.9a2.867,2.867,0,0,0,2.867,0L40.136,35.556A2.867,2.867,0,0,0,41.569,33.073Z" transform="translate(0 0)" fill="#ff4755"/>
    <path id="Path_870" data-name="Path 870" d="M40.136,2.483,22.218,12.828a2.867,2.867,0,0,1-2.867,0L1.434,2.483A2.867,2.867,0,0,1,0,0V1.71A2.867,2.867,0,0,0,1.434,4.193L19.351,14.537a2.867,2.867,0,0,0,2.867,0L40.136,4.193A2.867,2.867,0,0,0,41.569,1.71V0A2.867,2.867,0,0,1,40.136,2.483Z" transform="translate(0 32.191)" fill="#fc2b3a"/>
    <path id="Path_871" data-name="Path 871" d="M33.965,27.631V10.005a.475.475,0,0,0-.238-.411L17.22.064a.475.475,0,0,0-.475,0L.237,9.594A.475.475,0,0,0,0,10.005V27.631l.993,1.455,15.99,9.232,15.99-9.232Z" transform="translate(3.802 4.02)" fill="#fff5f5"/>
    <path id="Path_872" data-name="Path 872" d="M0,0V1.436a.475.475,0,0,0,.237.411l16.507,9.531a.475.475,0,0,0,.475,0L33.727,1.847a.475.475,0,0,0,.237-.411V0L17.22,9.668a.475.475,0,0,1-.475,0Z" transform="translate(3.802 31.651)" fill="#efe2dd"/>
  </g>
</svg>
