<svg xmlns="http://www.w3.org/2000/svg" width="61.982" height="60.219" viewBox="0 0 61.982 60.219">
  <g id="gift" transform="matrix(-0.53, 0.848, -0.848, -0.53, 61.982, 24.966)">
    <path id="Path_869" data-name="Path 869" d="M41.569,33.073V13.212a2.867,2.867,0,0,0-1.434-2.483L22.218.384a2.867,2.867,0,0,0-2.867,0L1.434,10.729A2.867,2.867,0,0,0,0,13.212V33.073a2.867,2.867,0,0,0,1.434,2.483L19.351,45.9a2.867,2.867,0,0,0,2.867,0L40.136,35.556A2.867,2.867,0,0,0,41.569,33.073Z" transform="translate(0 0)" fill="#ff4755"/>
    <path id="Path_870" data-name="Path 870" d="M40.136,2.483,22.218,12.828a2.867,2.867,0,0,1-2.867,0L1.434,2.483A2.867,2.867,0,0,1,0,0V1.71A2.867,2.867,0,0,0,1.434,4.193L19.351,14.537a2.867,2.867,0,0,0,2.867,0L40.136,4.193A2.867,2.867,0,0,0,41.569,1.71V0A2.867,2.867,0,0,1,40.136,2.483Z" transform="translate(0 32.191)" fill="#fc2b3a"/>
    <path id="Path_871" data-name="Path 871" d="M33.965,27.631V10.005a.475.475,0,0,0-.238-.411L17.22.064a.475.475,0,0,0-.475,0L.238,9.594A.475.475,0,0,0,0,10.005V27.631l.993,1.455,15.99,9.232,15.99-9.232Z" transform="translate(3.802 4.02)" fill="#fff5f5"/>
    <path id="Path_872" data-name="Path 872" d="M0,0V1.436a.475.475,0,0,0,.237.411l16.507,9.531a.475.475,0,0,0,.475,0L33.727,1.847a.475.475,0,0,0,.237-.411V0L17.22,9.668a.475.475,0,0,1-.475,0Z" transform="translate(3.802 31.651)" fill="#efe2dd"/>
    <g id="improve" transform="translate(9.527 12.002)">
      <path id="Path_617" data-name="Path 617" d="M22.639,17.766a4.2,4.2,0,0,0-5.7-3.146L8.086,5.765A4.2,4.2,0,0,0,2.51.353a.184.184,0,0,0-.056.3L5.743,3.937,3.937,5.743.649,2.454a.184.184,0,0,0-.3.056A4.2,4.2,0,0,0,5.765,8.086l8.855,8.855a4.2,4.2,0,0,0,3.146,5.7,4.237,4.237,0,0,0,.748.067,4.181,4.181,0,0,0,1.682-.353.184.184,0,0,0,.056-.3l-3.289-3.289,1.806-1.806,3.289,3.289a.184.184,0,0,0,.3-.056A4.191,4.191,0,0,0,22.639,17.766Z" transform="translate(0.389 0)" fill="#abb4bd"/>
      <path id="Path_618" data-name="Path 618" d="M20.152,19.556a4.182,4.182,0,0,1-.727.064,4.233,4.233,0,0,1-.748-.067,4.2,4.2,0,0,1-3.146-5.7L6.676,5a4.19,4.19,0,0,1-2.315.237A4.17,4.17,0,0,1,2.14,4.075,4.169,4.169,0,0,1,.978,1.854a4.2,4.2,0,0,1,0-1.475L.649.052a.184.184,0,0,0-.3.056,4.2,4.2,0,0,0,.876,4.651,4.2,4.2,0,0,0,4.536.925l8.855,8.855a4.2,4.2,0,0,0,3.146,5.7,4.237,4.237,0,0,0,.748.067,4.181,4.181,0,0,0,1.682-.353.184.184,0,0,0,.056-.3Z" transform="translate(0.389 2.402)" fill="#707070"/>
      <path id="Path_619" data-name="Path 619" d="M13.777,1.139,12.746.107a.365.365,0,0,0-.516,0L.107,12.23a.365.365,0,0,0,0,.516l1.032,1.032a.365.365,0,0,0,.516,0L13.777,1.655A.365.365,0,0,0,13.777,1.139Z" transform="translate(5.159 3.914)" fill="#abb4bd"/>
      <path id="Path_620" data-name="Path 620" d="M5.523,1.139,4.492.107a.365.365,0,0,0-.454-.05L1.2,1.862a.364.364,0,0,0-.13.145L.039,4.071a.365.365,0,0,0,.068.421L1.139,5.523a.365.365,0,0,0,.421.068L3.623,4.56a.364.364,0,0,0,.145-.13L5.573,1.592A.365.365,0,0,0,5.523,1.139Z" transform="translate(17.281 0.045)" fill="#707070"/>
      <path id="Path_621" data-name="Path 621" d="M10.94,4.234,6.813.107a.365.365,0,0,0-.516,0L.107,6.3a.365.365,0,0,0,0,.516L4.234,10.94a.365.365,0,0,0,.516,0l6.19-6.19A.365.365,0,0,0,10.94,4.234Z" transform="translate(0.516 11.394)" fill="#7ec97d"/>
      <rect id="Rectangle_314" data-name="Rectangle 314" width="1.935" height="9.484" transform="translate(8.685 12.858) rotate(45)" fill="#59ad57"/>
      <path id="Path_622" data-name="Path 622" d="M8.109,1.4,6.706,0,0,6.706l1.4,1.4a.365.365,0,0,0,.516,0l6.19-6.19A.365.365,0,0,0,8.109,1.4Z" transform="translate(3.347 14.226)" fill="#4e944d"/>
      <path id="Path_623" data-name="Path 623" d="M3.46,5.123A.363.363,0,0,0,3.575,5.1l1.548-.516L.535,0,.019,1.548a.365.365,0,0,0,.088.373l3.1,3.1A.365.365,0,0,0,3.46,5.123Z" transform="translate(0 17.834)" fill="#59ad57"/>
      <path id="Path_624" data-name="Path 624" d="M3.353.107A.365.365,0,0,0,3.1,0H0L4.492,4.492V1.4a.365.365,0,0,0-.107-.258Z" transform="translate(7.071 11.394)" fill="#b8e3a8"/>
    </g>
  </g>
</svg>
