<svg id="gift" xmlns="http://www.w3.org/2000/svg" xmlns:xlink="http://www.w3.org/1999/xlink" width="41.569" height="47.113" viewBox="0 0 41.569 47.113">
  <defs>
    <linearGradient id="linear-gradient" x1="0.5" x2="0.5" y2="1" gradientUnits="objectBoundingBox">
      <stop offset="0" stop-color="#efcd1b"/>
      <stop offset="1" stop-color="#cc7e02"/>
    </linearGradient>
  </defs>
  <path id="Path_869" data-name="Path 869" d="M71.692,33.073V13.211a2.867,2.867,0,0,0-1.434-2.483L52.341.384a2.867,2.867,0,0,0-2.867,0L31.557,10.728a2.867,2.867,0,0,0-1.434,2.483V33.073a2.867,2.867,0,0,0,1.434,2.483L49.474,45.9a2.867,2.867,0,0,0,2.867,0L70.259,35.556A2.867,2.867,0,0,0,71.692,33.073Z" transform="translate(-30.123 0.001)" fill="url(#linear-gradient)"/>
  <path id="Path_870" data-name="Path 870" d="M70.259,352.324,52.341,362.669a2.867,2.867,0,0,1-2.867,0L31.557,352.324a2.867,2.867,0,0,1-1.434-2.483v1.71a2.867,2.867,0,0,0,1.434,2.483l17.917,10.345a2.867,2.867,0,0,0,2.867,0l17.917-10.345a2.867,2.867,0,0,0,1.434-2.483v-1.71A2.867,2.867,0,0,1,70.259,352.324Z" transform="translate(-30.123 -317.65)" fill="#cc7e02"/>
  <path id="Path_871" data-name="Path 871" d="M105.408,71.323V53.7a.475.475,0,0,0-.238-.411L88.663,43.755a.475.475,0,0,0-.475,0L71.68,53.286a.475.475,0,0,0-.238.411V71.323l.993,1.455,15.99,9.232,15.99-9.232Z" transform="translate(-67.641 -39.671)" fill="#fff5f5"/>
  <path id="Path_872" data-name="Path 872" d="M71.443,343.973v1.436a.475.475,0,0,0,.238.411l16.507,9.531a.475.475,0,0,0,.475,0l16.507-9.531a.475.475,0,0,0,.237-.411v-1.436l-16.745,9.668a.475.475,0,0,1-.475,0Z" transform="translate(-67.641 -312.321)" fill="#efe2dd"/>
  <g id="switch" transform="translate(5.919 25.239) rotate(-52)">
    <path id="Path_728" data-name="Path 728" d="M3.746,0H16.858A3.746,3.746,0,0,1,20.6,3.746V16.858A3.746,3.746,0,0,1,16.858,20.6H3.746A3.746,3.746,0,0,1,0,16.858V3.746A3.746,3.746,0,0,1,3.746,0Zm0,0" transform="translate(0 0)" fill="#4c4f6e"/>
    <path id="Path_729" data-name="Path 729" d="M1.873,0H13.661A1.325,1.325,0,0,1,14.6,2.261L2.261,14.6A1.325,1.325,0,0,1,0,13.661V1.873A1.873,1.873,0,0,1,1.873,0Zm0,0" transform="translate(1.873 1.873)" fill="#7c7f95"/>
    <path id="Path_730" data-name="Path 730" d="M.937,0H12.176a.937.937,0,1,1,0,1.873H.937A.937.937,0,1,1,.937,0Zm0,0" transform="translate(2.81 1.873)" fill="#cacad4"/>
    <path id="Path_731" data-name="Path 731" d="M1.873,0h5.62A1.873,1.873,0,0,1,9.366,1.873v9.366a1.873,1.873,0,0,1-1.873,1.873H1.873A1.873,1.873,0,0,1,0,11.239V1.873A1.873,1.873,0,0,1,1.873,0Zm0,0" transform="translate(5.62 3.746)" fill="#080b36"/>
    <path id="Path_732" data-name="Path 732" d="M.937,0H6.556a.937.937,0,0,1,.937.937V10.3a.937.937,0,0,1-.937.937H.937A.937.937,0,0,1,0,10.3V.937A.937.937,0,0,1,.937,0Zm0,0" transform="translate(6.556 4.683)" fill="#4c4f6e"/>
    <path id="Path_733" data-name="Path 733" d="M.937,0H6.556a.937.937,0,1,1,0,1.873H.937A.937.937,0,1,1,.937,0Zm0,0" transform="translate(6.556 4.683)" fill="#999aac"/>
    <g id="Group_668" data-name="Group 668" transform="translate(1.128 0.793)">
      <path id="Path_734" data-name="Path 734" d="M.468,0H7.024a.468.468,0,1,1,0,.937H.468A.468.468,0,0,1,.468,0Zm0,0" transform="translate(5.428 14.193)" fill="#2c2f53"/>
      <path id="Path_735" data-name="Path 735" d="M17.687,0a.937.937,0,0,0-.652,1.609A1.858,1.858,0,0,1,17.6,2.954V3.7c0,.009,0,.017,0,.026s0,.017,0,.026V16.066a1.875,1.875,0,0,1-1.873,1.873H2.619a1.854,1.854,0,0,1-1.12-.372.937.937,0,0,0-1.125,1.5,3.743,3.743,0,0,0,.746.435h0l.005,0,.021.009h0l.005,0h0l0,0h0l.007,0h0l0,0h0l.007,0h0l0,0,0,0,0,0h0l0,0h.011l0,0h.006l0,0h.011l.006,0h.008l0,0H1.3l0,0h.059l.006,0h.066l0,0h.036l.008,0h.077l.008,0h.014l.009,0h0l.009,0h0l.009,0h0l.009,0h0l.009,0h0l.009,0h0l.009,0h0l.023.006h0l.009,0h0l.009,0h0l.009,0h0l.009,0h0l.009,0h0l.009,0h0l.009,0h0l.009,0,.014,0,.037.008.037.008.014,0h0l.014,0,.009,0h0l.009,0h0l.009,0h0l.009,0h0l.009,0h0l.009,0H15.731a3.746,3.746,0,0,0,3.746-3.746V3.751c0-.009,0-.017,0-.026s0-.017,0-.026V2.925h0V2.9h0V2.883h0V2.847h0V2.83h0V2.815h0v0h0V2.8h0v0h0s0,0,0,0h0v0h0V2.776h0v0h0v0h0v0h0v0h0V2.754h0v0h0v0h0v0h0v0h0v0h0v0h0V2.724h0v0h0v0h0v0h0v0h0v0h0v0h0v0h0v0h0v0h0v0h0v0h0v0h0v0h0v0h0v0h0v0h0v0h0v0h0v0h0v0h0v0h0v0h0V2.645h0v0h0v0h0v0h0v0h0v0h0v0h0v0h0v0h0v0h0v0h0v0h0v0h0v0h0V2.592h0v0h0v0h0v0h0v0h0v0h0V2.57h0v0h0v0h0v0h0v0h0v0h0v0h0V2.541h0V2.533h0v0h0v0h0v0h0v0h0v0h0v0h0v0h0V2.489h0v0h0v0h0v0h0v0h0v0h0v0h0v0h0v0h0v0h0v0h0v0h0v0h0v0h0v0h0v0h0v0h0v0h0v0h0v0h0v0h0v0h0v0h0v0h0v0h0v0h0v0h0v0h0v0h0v0h0v0h0v0h0v0h0v0h0v0h0v0h0v0h0v0h0v0h0v0h0v0h0l0-.016h0V2.331h0V2.325h0v0h0v0h0v0h0v0h0v0h0v0h0v0h0v0h0v0h0v0h0v0h0v0h0v0h0v0h0v0h0v0h0v0h0v0h0v0h0v0h0v0h0v0h0v0h0v0h0v0h0v0h0v0h0v0h0v0h0v0h0v0h0v0h0v0h0V2.194h0v0h0v0h0v0h0v0h0v0h0v0h0v0h0v0h0v0h0v0h0v0h0v0h0v0h0v0h0v0h0v0h0v0h0v0h0v0h0v0h0V2.119h0v0h0v0h0V2.107h0v0h0v0h0v0h0v0h0v0h0v0h0v0h0v0h0v0h0v0h0V2.063h0v0h0v0h0V2.049h0v0h0v0h0v0h0v0h0v0h0v0h0v0h0v0h0v0h0v0h0v0h0v0h0V2h0V2h0V2h0V2h0v0h0v0h0v0h0v0h0v0h0v0h0v0h0v0h0v0h0v0h0v0h0v0h0v0h0v0h0v0h0v0h0v0h0v0h0v0h0V1.931h0v0h0v0h0L19.327,1.9l0-.005h0V1.89h0v0h0v0h0v0h0v0h0v0h0v0h0v0h0v0h0v0h0v0h0v0h0v0h0v0h0v0h0v0h0v0h0v0h0V1.826l0-.006h0l0,0h0v0h0v0h0v0h0v0h0v0h0v0h0v0h0v0h0l0,0h0v0h0v0l-.007-.022h0v0h0v0h0v0h0v0h0v0h0v0h0v0h0v0h0v0h0v0h0v0h0v0h0v0h0v0h0v0h0v0h0v0h0v0h0v0h0v0h0v0h0v0h0v0h0v0h0v0h0v0h0v0h0l0,0h0l-.006-.015h0v0h0v0h0v0h0v0h0v0h0v0h0v0h0v0h0v0h0v0h0v0h0v0h0v0h0v0h0v0h0v0h0v0h0v0h0v0h0v0h0v0h0v0h0v0h0v0h0v0h0v0h0v0h0v0h0v0h0v0h0v0h0L19.18,1.49h0v0h0v0h0v0h0v0h0v0h0V1.465h0v0h0v0h0v0h0v0h0v0h0v0h0v0h0v0h0v0h0v0h0v0h0v0h0v0h0v0h0v0h0v0h0v0h0v0h0v0h0v0h0v0h0v0h0l-.017-.036h0l0,0h0l0-.005h0l0-.005h0v0h0v0h0v0h0v0h0v0h0v0h0v0h0v0h0v0h0v0h0v0h0l0,0h0v0h0v0h0l0,0h0v0h0v0h0v0h0v0h0v0h0v0h0v0L19.041,1.2l-.008-.015h0l0-.005h0l-.011-.02h0l0,0h0l-.008-.015h0a3.767,3.767,0,0,0-.669-.872A.933.933,0,0,0,17.687,0Zm0,0" transform="translate(0 0)" fill="#2c2f53"/>
    </g>
  </g>
</svg>
