<svg xmlns="http://www.w3.org/2000/svg" width="154.315" height="136.72" viewBox="0 0 154.315 136.72">
  <g id="Page-1" transform="translate(0)">
    <g id="_016---Certificate" data-name="016---Certificate" transform="translate(0 0)">
      <path id="Shape" d="M152.745,1.57A5.2,5.2,0,0,0,148.993,0H5.321A5.2,5.2,0,0,0,1.57,1.57,5.2,5.2,0,0,0,0,5.321V117.066a5.2,5.2,0,0,0,1.57,3.751,5.2,5.2,0,0,0,3.751,1.57H146.333a7.982,7.982,0,0,0,7.982-7.982V5.321a5.2,5.2,0,0,0-1.57-3.751Z" transform="translate(0 0)" fill="#f3d55b"/>
      <path id="Shape-2" data-name="Shape" d="M84.579,4.545V113.629a7.963,7.963,0,0,1-2.341,5.64L71.276,108.308V12.527L83.009.793A5.2,5.2,0,0,1,84.579,4.545Z" transform="translate(69.736 0.776)" fill="#f0c419"/>
      <path id="Shape-3" data-name="Shape" d="M13.3,12.527v95.781L1.57,120.041A5.2,5.2,0,0,1,0,116.29V4.545A5.2,5.2,0,0,1,1.57.793Z" transform="translate(0 0.776)" fill="#f0c419"/>
      <path id="Shape-4" data-name="Shape" d="M151.2,66.1a7.963,7.963,0,0,1-5.64,2.341H4.545a5.2,5.2,0,0,1-3.751-1.57L12.527,55.138H140.235Z" transform="translate(0.776 53.947)" fill="#f29c1f"/>
      <path id="Rectangle-path" d="M6.724,6.724H134.433v95.781H6.724Z" transform="translate(6.579 6.579)" fill="#ecf0f1"/>
      <path id="Shape-5" data-name="Shape" d="M134.433,6.724S6.724,6.724,6.724,102.506V6.724Z" transform="translate(6.579 6.579)" fill="#fff"/>
      <path id="Shape-6" data-name="Shape" d="M68.15,18.769H30.9a2.661,2.661,0,0,1,0-5.321H68.15a2.661,2.661,0,1,1,0,5.321Z" transform="translate(27.631 13.158)" fill="#bdc3c7"/>
      <path id="Shape-7" data-name="Shape" d="M54.7,48.356H17.454a2.661,2.661,0,1,1,0-5.321H54.7a2.661,2.661,0,0,1,0,5.321Z" transform="translate(14.474 42.105)" fill="#95a5a5"/>
      <path id="Shape-8" data-name="Shape" d="M80.079,25.494H26.867a2.661,2.661,0,1,1,0-5.321H80.079a2.661,2.661,0,1,1,0,5.321Z" transform="translate(23.684 19.737)" fill="#bdc3c7"/>
      <path id="Shape-9" data-name="Shape" d="M47.069,50.3V84.831a2.661,2.661,0,0,0,3.858,2.395l6.918-3.485a2.706,2.706,0,0,1,2.395,0l6.918,3.485a2.661,2.661,0,0,0,3.858-2.395V50.3Z" transform="translate(46.052 49.21)" fill="#ff5364"/>
      <path id="Shape-10" data-name="Shape" d="M54.7,52.187a37.868,37.868,0,0,1-18.595-4.88,37.424,37.424,0,0,1-18.653,4.88,2.661,2.661,0,0,1,0-5.321,32.249,32.249,0,0,0,13.8-3.036,12.635,12.635,0,0,1-4.882-8.74c0-1.6.7-6.848,9.7-6.848s9.7,5.241,9.7,6.848a12.662,12.662,0,0,1-4.88,8.756,32.353,32.353,0,0,0,13.8,3.02,2.661,2.661,0,0,1,0,5.321ZM36.078,33.563c-2.022,0-4.382.4-4.382,1.527s1.195,3.4,4.361,5.837c2.831-2.166,4.4-4.43,4.4-5.837,0-1.128-2.36-1.527-4.382-1.527Z" transform="translate(14.474 27.631)" fill="#95a5a5"/>
      <path id="Shape-11" data-name="Shape" d="M90.9,53.517c0,3.068-5.728,4.97-6.835,7.639-1.147,2.764,1.514,8.152-.569,10.235s-7.471-.577-10.233.567c-2.669,1.107-4.571,6.835-7.639,6.835s-4.97-5.728-7.639-6.835c-2.764-1.147-8.152,1.514-10.235-.569s.577-7.471-.567-10.233c-1.107-2.669-6.835-4.571-6.835-7.639s5.728-4.97,6.835-7.639c1.147-2.764-1.514-8.152.569-10.235s7.471.577,10.233-.567c2.661-1.107,4.571-6.835,7.639-6.835s4.97,5.728,7.639,6.835c2.764,1.147,8.152-1.514,10.235.569s-.577,7.471.567,10.233C85.168,48.547,90.9,50.449,90.9,53.517Z" transform="translate(39.473 27.631)" fill="#fb7b76"/>
      <circle id="Oval" cx="9.312" cy="9.312" r="9.312" transform="translate(95.782 71.836)" fill="#df4d60"/>
    </g>
  </g>
</svg>
