<svg xmlns="http://www.w3.org/2000/svg" width="31.585" height="22.596" viewBox="0 0 31.585 22.596">
  <g id="speed-meter" transform="translate(-1 -91.922)">
    <g id="Group_32938" data-name="Group 32938" transform="translate(1 91.922)">
      <path id="Path_107744" data-name="Path 107744" d="M43.594,168.637a.383.383,0,0,0-.095-.278L40.463,164.9a.383.383,0,0,0-.541-.035,15.8,15.8,0,0,0-3.443,4.3.383.383,0,0,0,.152.52l4.036,2.206a.383.383,0,0,0,.52-.152,10.445,10.445,0,0,1,2.277-2.843A.382.382,0,0,0,43.594,168.637Z" transform="translate(-34.552 -161.015)"/>
      <path id="Path_107745" data-name="Path 107745" d="M161.033,99.52a.383.383,0,0,0,.518.159,10.321,10.321,0,0,1,3.459-1.113.383.383,0,0,0,.328-.431l-.618-4.558a.384.384,0,0,0-.431-.328,15.668,15.668,0,0,0-5.252,1.689.383.383,0,0,0-.159.518Z" transform="translate(-150.636 -93.177)"/>
      <path id="Path_107746" data-name="Path 107746" d="M5.459,311.966l-4.439-1.2a.383.383,0,0,0-.47.27A15.834,15.834,0,0,0,0,315.175c0,.24.006.481.018.737a.383.383,0,0,0,.383.366H.418l4.595-.212a.383.383,0,0,0,.365-.4c-.008-.172-.012-.333-.012-.489a10.462,10.462,0,0,1,.363-2.739A.384.384,0,0,0,5.459,311.966Z" transform="translate(0 -299.455)"/>
      <path id="Path_107747" data-name="Path 107747" d="M325.243,93.41a15.675,15.675,0,0,0-5.312-1.486.383.383,0,0,0-.419.345l-.443,4.578a.383.383,0,0,0,.345.418,10.326,10.326,0,0,1,3.5.978.383.383,0,0,0,.512-.179l2-4.144A.383.383,0,0,0,325.243,93.41Z" transform="translate(-302.601 -91.922)"/>
      <path id="Path_107748" data-name="Path 107748" d="M437.792,161.9a.383.383,0,0,0-.043-.29,15.806,15.806,0,0,0-3.6-4.164.383.383,0,0,0-.539.055l-2.9,3.568a.383.383,0,0,0,.056.539,10.451,10.451,0,0,1,2.385,2.754.383.383,0,0,0,.526.132l3.948-2.36A.384.384,0,0,0,437.792,161.9Z" transform="translate(-408.394 -153.985)"/>
      <path id="Path_107749" data-name="Path 107749" d="M503.618,300a.383.383,0,0,0-.48-.251l-4.389,1.375a.383.383,0,0,0-.251.48,10.431,10.431,0,0,1,.475,3.122c0,.157,0,.317-.012.489a.383.383,0,0,0,.365.4l4.595.212h.018a.383.383,0,0,0,.383-.366c.012-.256.018-.5.018-.737A15.789,15.789,0,0,0,503.618,300Z" transform="translate(-472.754 -289.005)"/>
      <path id="Path_107750" data-name="Path 107750" d="M176.749,312.34c-.066,0-.132,0-.2.006l-6.227-3.674a.395.395,0,0,0-.549.526l3.4,6.366a3.661,3.661,0,0,0-.019.371,3.6,3.6,0,1,0,3.6-3.6Z" transform="translate(-160.97 -297.434)" fill="none" stroke="#000" stroke-width="1"/>
    </g>
  </g>
</svg>
